<?xml version="1.0" standalone="no"?>
<!DOCTYPE svg PUBLIC "-//W3C//DTD SVG 20010904//EN"
 "http://www.w3.org/TR/2001/REC-SVG-20010904/DTD/svg10.dtd">
<svg version="1.0" xmlns="http://www.w3.org/2000/svg"
 width="1181.000000pt" height="1772.000000pt" viewBox="0 0 1181.000000 1772.000000"
 preserveAspectRatio="xMidYMid meet">

<g transform="translate(0.000000,1772.000000) scale(0.100000,-0.100000)"
fill="#000000" stroke="none">
<path d="M0 8860 l0 -8860 5905 0 5905 0 0 8860 0 8860 -5905 0 -5905 0 0
-8860z m6491 7290 c25 -5 93 -12 150 -15 57 -4 139 -15 181 -26 43 -10 91 -19
107 -19 16 0 58 -9 93 -20 34 -11 72 -20 83 -20 21 0 126 -31 280 -83 150 -50
189 -64 220 -81 17 -9 36 -16 43 -16 7 0 30 -9 50 -20 20 -11 89 -45 152 -75
63 -31 131 -65 150 -76 19 -11 55 -31 80 -45 99 -54 280 -172 320 -209 14 -12
51 -40 83 -62 183 -126 568 -525 730 -758 53 -75 135 -201 158 -241 12 -21 33
-57 45 -79 13 -22 34 -60 47 -85 13 -25 28 -54 34 -65 5 -11 20 -42 33 -70 12
-27 33 -71 46 -96 13 -26 24 -53 24 -60 0 -8 7 -27 16 -44 18 -34 47 -112 74
-200 10 -33 23 -73 29 -90 14 -37 39 -133 53 -200 5 -27 18 -86 29 -130 10
-44 23 -127 29 -185 5 -58 15 -132 22 -165 16 -83 24 -5781 8 -6000 -17 -251
-62 -551 -100 -670 -10 -33 -22 -78 -26 -100 -4 -22 -15 -58 -25 -80 -10 -22
-19 -51 -19 -64 0 -13 -9 -40 -19 -60 -11 -20 -26 -56 -34 -81 -30 -91 -50
-137 -113 -270 -36 -74 -69 -142 -74 -150 -5 -8 -28 -46 -50 -85 -68 -116 -85
-143 -103 -163 -9 -10 -17 -24 -17 -30 0 -6 -20 -36 -45 -66 -25 -31 -45 -58
-45 -60 0 -10 -60 -92 -80 -111 -12 -11 -46 -51 -75 -90 -84 -110 -363 -387
-470 -466 -25 -19 -72 -54 -103 -79 -31 -25 -77 -59 -102 -75 -25 -16 -67 -46
-95 -65 -53 -37 -69 -48 -125 -80 -19 -12 -53 -31 -75 -45 -22 -13 -114 -60
-205 -105 -91 -45 -172 -85 -181 -90 -39 -20 -172 -70 -187 -70 -9 0 -30 -9
-47 -20 -16 -11 -41 -20 -55 -20 -14 0 -43 -9 -65 -20 -22 -11 -47 -20 -57
-20 -10 0 -18 -4 -18 -10 0 -5 -7 -10 -15 -10 -13 0 -15 43 -15 327 0 290 2
328 17 345 9 10 25 18 36 18 10 0 31 6 45 14 45 24 156 74 182 81 14 4 36 16
49 26 13 11 32 19 42 19 10 0 21 5 24 10 4 6 21 17 38 26 69 33 104 53 116 68
8 9 19 16 25 16 22 1 244 156 350 245 13 11 45 38 71 60 65 55 235 225 235
235 0 5 8 15 18 22 11 7 43 42 73 78 29 36 59 71 66 78 7 7 13 17 13 21 0 4
12 22 28 39 40 47 140 194 170 252 7 14 26 48 42 75 16 28 34 61 39 75 6 14
16 32 21 40 6 8 15 26 21 40 6 14 19 43 29 65 25 57 65 155 78 190 48 138 82
253 82 280 0 14 6 38 14 53 7 15 16 50 20 77 4 28 17 106 29 175 l22 125 0
3020 0 3020 -22 100 c-12 55 -24 129 -28 165 -4 36 -13 80 -21 99 -8 18 -14
46 -14 62 0 16 -11 52 -24 81 -13 29 -26 69 -30 89 -4 21 -13 50 -22 67 -12
25 -13 42 -3 102 6 39 8 74 5 77 -3 4 -6 0 -6 -7 0 -7 -17 -39 -37 -71 -56
-86 -99 -105 -313 -135 -124 -17 -408 -26 -416 -13 -3 5 0 26 7 48 12 39 13
40 68 46 175 18 476 103 657 185 l61 28 7 78 c4 42 9 91 12 108 4 24 -3 16
-30 -34 -19 -36 -41 -79 -49 -95 -29 -62 -78 -91 -229 -138 -126 -40 -239 -69
-311 -82 -12 -3 -55 -11 -95 -18 l-73 -14 3 46 3 46 90 30 c50 17 112 41 139
53 27 12 53 22 58 22 5 0 87 38 182 85 95 47 179 85 185 85 6 0 14 6 17 14 3
7 27 25 53 40 27 14 54 32 61 41 7 9 13 61 16 137 4 113 3 121 -11 93 -8 -16
-14 -41 -15 -54 0 -12 -18 -62 -41 -110 -34 -71 -49 -91 -87 -118 -43 -29
-242 -133 -255 -133 -3 0 -40 -16 -83 -36 -83 -38 -185 -78 -251 -99 -42 -13
-43 -12 -43 10 0 60 12 82 55 104 23 11 45 21 48 21 7 0 191 105 222 127 11 7
68 46 126 86 105 71 257 188 310 238 29 27 33 48 45 217 3 53 2 92 -3 92 -5 0
-18 -35 -28 -77 -24 -99 -61 -208 -82 -239 -43 -66 -347 -284 -545 -389 -145
-78 -142 -78 -127 -2 8 44 38 86 61 87 13 0 170 119 221 167 41 38 48 49 42
71 -5 22 -126 178 -202 262 -56 62 -233 237 -259 257 -16 12 -76 59 -133 105
-57 46 -126 97 -155 115 -28 17 -58 38 -66 46 -8 8 -44 31 -80 51 -87 49 -100
57 -133 79 -15 10 -37 20 -48 22 -11 2 -31 13 -46 24 -14 12 -36 21 -48 21
-12 0 -33 8 -46 18 -13 11 -37 22 -54 26 -16 4 -37 14 -46 22 -8 8 -35 18 -60
23 -24 5 -79 23 -122 39 -64 25 -225 72 -296 87 -306 65 -560 91 -791 82 -138
-5 -470 -46 -535 -66 -16 -5 -48 -12 -70 -16 -95 -15 -426 -121 -500 -159 -16
-9 -36 -16 -43 -16 -11 0 -63 -24 -112 -52 -8 -5 -33 -18 -55 -29 -55 -27
-171 -92 -193 -107 -56 -39 -94 -62 -99 -62 -4 0 -17 -10 -29 -21 -13 -12 -32
-27 -43 -33 -26 -15 -142 -96 -161 -112 -215 -190 -383 -362 -499 -514 -73
-95 -85 -112 -101 -144 -14 -27 -13 -30 5 -42 11 -7 37 -29 58 -48 21 -19 71
-56 112 -83 55 -36 75 -55 80 -75 16 -85 16 -88 3 -88 -28 0 -438 245 -468
279 -3 3 -34 28 -70 55 -36 27 -80 63 -98 80 -37 35 -94 139 -87 158 3 7 -4
31 -15 53 -11 21 -20 54 -20 72 0 17 -5 44 -12 58 -12 27 -3 49 11 26 6 -10
20 0 50 39 22 28 41 55 41 59 0 3 19 27 43 51 23 25 67 74 97 110 84 101 248
266 325 328 39 31 106 86 150 123 44 36 105 82 135 102 30 20 73 50 95 65 76
54 166 112 198 127 18 9 50 26 72 40 22 13 92 49 155 79 63 31 132 65 152 76
20 11 44 20 53 20 10 0 29 7 43 15 15 8 63 27 107 43 161 58 203 71 345 108
36 9 93 25 128 35 34 11 77 19 95 19 18 0 57 7 87 15 30 8 129 22 220 31 91 8
199 19 240 24 86 10 442 3 511 -10z m-324 -914 c46 -39 80 -113 103 -226 24
-115 22 -181 -7 -300 -38 -155 -113 -232 -196 -201 -57 22 -96 81 -128 196
-47 171 -15 408 68 501 53 59 112 70 160 30z m-3042 -768 c8 -99 9 -101 130
-205 103 -87 188 -151 302 -226 97 -63 305 -180 343 -192 17 -5 30 -44 30 -90
0 -22 -1 -23 -42 -10 -42 13 -190 71 -298 117 -104 45 -277 137 -310 164 -35
30 -100 154 -100 191 0 12 -4 24 -9 28 -5 3 -12 19 -16 36 -17 77 -21 -18 -7
-151 l7 -65 55 -36 c30 -20 84 -52 120 -71 36 -19 81 -44 100 -54 19 -11 80
-39 135 -63 55 -23 116 -50 135 -59 19 -8 78 -30 130 -47 100 -34 120 -51 120
-106 0 -30 17 -30 -165 5 -113 23 -151 33 -318 84 -174 54 -192 68 -257 198
-23 47 -44 83 -46 81 -2 -1 1 -45 7 -97 14 -123 15 -124 279 -208 190 -61 297
-88 416 -103 l90 -11 11 -38 c5 -22 7 -44 3 -50 -9 -15 -261 -6 -414 15 -225
31 -266 50 -323 158 -37 67 -38 65 -21 -35 11 -67 13 -71 47 -86 103 -43 363
-84 561 -87 l165 -3 13 -32 c7 -18 10 -36 5 -40 -27 -24 -353 -54 -520 -49
-129 5 -136 9 -205 114 -33 49 -39 55 -34 30 3 -16 9 -44 12 -62 4 -19 0 -52
-9 -80 -26 -78 -66 -288 -82 -428 -23 -197 -23 -5901 0 -6116 34 -317 128
-653 251 -892 13 -26 24 -56 24 -66 0 -11 4 -23 10 -26 5 -3 31 -44 57 -91 26
-48 58 -102 70 -123 12 -20 31 -53 43 -73 11 -21 25 -38 30 -38 6 0 10 -6 10
-13 0 -19 190 -258 287 -360 102 -108 349 -327 368 -327 4 0 28 -17 54 -37 65
-54 103 -79 128 -87 12 -4 23 -13 26 -20 3 -7 34 -28 69 -46 34 -18 70 -38 78
-45 8 -7 26 -16 40 -20 14 -4 36 -16 49 -26 13 -11 31 -19 39 -19 9 0 23 -6
31 -14 15 -13 123 -61 166 -73 11 -4 31 -14 44 -25 13 -10 35 -18 50 -19 14 0
49 -12 76 -27 l50 -27 3 -320 c2 -311 -2 -366 -28 -325 -5 8 -35 20 -67 26
-63 13 -133 36 -201 65 -23 11 -49 19 -58 19 -14 0 -62 20 -170 71 -23 10 -45
19 -50 19 -18 0 -301 147 -409 213 -45 27 -214 139 -275 181 -161 113 -535
465 -648 609 -20 27 -64 83 -98 125 -33 42 -63 84 -67 92 -4 8 -23 35 -42 60
-19 25 -38 52 -42 60 -3 8 -12 22 -19 30 -6 8 -21 32 -33 53 -12 20 -31 54
-42 75 -65 113 -118 216 -163 317 -15 33 -36 77 -47 97 -10 20 -19 45 -19 55
0 10 -7 32 -16 48 -9 17 -22 50 -30 75 -7 25 -20 65 -28 90 -43 125 -106 375
-106 419 0 17 -9 73 -21 124 -14 65 -23 155 -29 307 -12 274 -12 5622 -1 5915
9 214 27 358 68 525 9 36 20 88 25 115 5 28 17 75 27 105 10 30 31 96 45 145
15 50 37 113 48 140 55 134 114 270 129 295 5 8 29 56 54 105 49 99 52 104
107 188 21 32 38 61 38 65 0 4 13 23 30 42 16 19 30 42 31 50 2 26 7 -7 14
-102z m1020 -617 c109 -54 344 -141 379 -141 15 0 40 -80 28 -92 -4 -3 -32 -2
-62 4 -30 5 -84 13 -120 18 -131 18 -246 39 -275 50 -39 14 -89 81 -125 167
-42 98 -40 109 13 77 23 -14 96 -51 162 -83z m4147 16 c-33 -78 -81 -149 -114
-170 -21 -14 -113 -32 -298 -57 -36 -6 -87 -14 -114 -20 -27 -6 -53 -7 -57 -3
-7 7 4 82 13 86 1 1 64 22 138 46 141 46 292 113 395 174 39 23 61 31 63 23 1
-7 -10 -42 -26 -79z m-3524 -216 c78 -15 146 -31 150 -35 4 -4 -1 -13 -11 -21
-16 -12 -16 -13 3 -18 11 -3 20 -12 20 -20 0 -18 -36 -24 -191 -33 l-116 -7
-12 33 c-6 18 -11 36 -11 39 0 3 53 5 117 4 l118 -2 -114 14 c-62 7 -117 17
-122 22 -4 4 -11 21 -15 36 -6 26 -4 28 17 22 13 -3 88 -18 167 -34z m2907 12
c-3 -16 -10 -32 -15 -37 -4 -4 -65 -13 -134 -19 -70 -5 -125 -12 -123 -14 5
-4 218 -6 237 -1 11 2 14 -4 12 -22 -7 -49 -18 -52 -161 -44 -138 7 -182 21
-151 47 8 6 14 22 12 33 -3 20 5 23 100 37 57 9 123 23 148 31 72 23 83 21 75
-11z m-3600 -3 c149 -30 404 -70 442 -70 38 0 45 -4 53 -26 18 -47 13 -61 -27
-68 -21 -3 -118 -11 -216 -17 l-178 -11 -39 26 c-22 14 -52 45 -67 67 -16 23
-36 53 -45 68 -25 36 -23 53 5 46 12 -3 45 -10 72 -15z m4205 7 c0 -18 -56
-101 -93 -138 -62 -62 -59 -62 -245 -49 -236 16 -268 21 -264 44 10 57 20 66
69 66 27 0 98 10 158 21 61 11 135 24 165 29 30 6 87 16 125 24 39 7 73 14 78
15 4 0 7 -5 7 -12z m-3156 -94 c-8 -29 -35 -38 -51 -17 -16 21 -17 34 -3 34 6
0 10 -4 10 -10 0 -16 27 -11 34 6 9 23 16 13 10 -13z m-94 7 c0 -14 -24 -23
-47 -17 -15 3 -14 6 7 15 32 14 40 14 40 2z m2157 1 c15 12 16 12 10 -4 -4
-10 -7 -25 -7 -33 0 -19 -10 -17 -39 5 -14 11 -21 23 -17 30 6 9 11 9 22 0 11
-9 18 -8 31 2z m102 -7 c2 -2 -7 -8 -20 -13 -23 -8 -38 1 -39 22 0 7 49 -1 59
-9z m-171 -37 c12 2 22 -1 22 -6 0 -15 -27 -32 -41 -26 -22 8 -40 -40 -27 -76
12 -36 28 -33 42 8 9 26 14 29 29 19 14 -9 20 -8 27 4 8 12 10 11 10 -7 0 -19
-6 -23 -29 -23 -28 0 -30 -3 -37 -47 -6 -39 -8 -44 -15 -26 -4 12 -17 28 -29
35 -13 9 -20 23 -20 46 0 42 -24 52 -48 22 l-19 -23 -15 22 -15 22 -18 -27
c-30 -46 0 -124 35 -91 10 10 11 8 4 -8 -5 -11 -9 -44 -9 -73 0 -30 -4 -51
-10 -48 -5 1 -9 22 -7 46 3 35 -1 47 -23 70 -19 20 -25 34 -20 49 4 14 -1 33
-14 55 -12 18 -21 49 -20 67 l1 34 10 -35 c19 -66 39 -76 59 -28 8 19 15 26
17 17 13 -40 52 -46 52 -9 0 24 16 34 24 15 3 -8 12 -15 20 -15 16 0 26 20 27
58 l1 27 7 -25 c5 -18 14 -24 29 -23z m-1926 -24 c11 -23 38 -21 38 4 0 8 5
11 10 8 6 -3 10 -15 10 -25 0 -53 50 -25 51 29 0 36 0 36 13 -12 15 -55 20
-62 41 -54 13 5 21 47 16 80 0 4 3 7 8 7 6 0 11 -16 13 -36 3 -36 29 -66 44
-51 4 4 10 24 14 44 l7 38 7 -30 c17 -72 43 -80 61 -20 l11 40 8 -37 c4 -21
12 -40 17 -44 17 -10 40 20 41 54 1 44 18 41 18 -3 0 -24 6 -37 20 -45 18 -10
22 -7 35 22 8 18 14 26 15 18 0 -9 7 -26 16 -39 20 -28 33 -18 50 37 l12 37 1
-36 c1 -46 22 -66 45 -44 9 9 16 30 16 46 0 16 4 29 9 29 4 0 6 -11 3 -25 -6
-33 25 -70 45 -54 7 6 13 24 13 40 0 16 5 29 10 29 6 0 10 -14 10 -30 0 -17 6
-33 14 -36 8 -3 16 -27 20 -55 4 -27 8 -55 10 -62 1 -6 1 -9 -1 -4 -8 12 -25
8 -38 -10 -12 -17 -14 -17 -34 1 -21 19 -22 19 -36 0 -15 -19 -15 -18 -35 5
l-20 23 -19 -23 -19 -24 -23 20 c-15 14 -23 16 -26 8 -6 -18 -33 -16 -55 3
-17 16 -19 15 -32 -17 -9 -19 -15 -28 -16 -21 0 7 -9 23 -20 34 -19 21 -20 21
-34 3 -15 -21 -46 -14 -46 11 0 15 -4 13 -26 -7 l-26 -24 -19 24 -19 23 -19
-23 -18 -23 -14 22 c-17 28 -26 28 -49 0 l-18 -23 -13 28 c-14 31 -21 33 -39
12 -15 -18 -40 -3 -40 22 0 12 3 13 13 4 19 -15 37 6 37 45 0 39 -23 62 -44
45 -11 -10 -17 -7 -30 11 -9 12 -26 23 -38 23 -13 0 -24 7 -26 17 -2 12 2 15
17 11 14 -4 23 1 28 13 5 14 8 15 11 3 2 -7 8 -24 14 -36z m-222 15 c0 -18 -2
-20 -9 -8 -6 8 -7 18 -5 22 9 14 14 9 14 -14z m2327 0 c-3 -8 -6 -5 -6 6 -1
11 2 17 5 13 3 -3 4 -12 1 -19z m1733 16 c0 -25 -62 -125 -102 -165 l-49 -49
-137 0 c-126 0 -350 19 -447 38 -42 8 -43 8 -30 61 l8 34 81 -7 c83 -6 265 5
371 23 94 16 237 48 265 59 29 13 40 14 40 6z m-2282 -86 c18 -18 42 10 42 48
0 19 5 34 10 34 20 0 10 -65 -15 -95 l-25 -30 -19 24 -18 24 -18 -27 c-14 -21
-16 -34 -8 -59 11 -40 33 -41 53 -2 13 28 15 28 18 8 2 -12 10 -27 18 -33 18
-16 44 3 44 34 1 20 2 19 21 -6 12 -16 26 -25 34 -21 19 7 19 -11 1 -26 -11
-10 -17 -7 -30 11 l-16 22 -16 -22 c-18 -26 -27 -27 -49 -6 -15 15 -17 15 -32
-6 l-16 -23 -23 28 c-21 27 -22 27 -29 6 -8 -25 -40 -28 -54 -3 -9 16 -11 15
-26 -5 -16 -23 -45 -21 -45 3 0 20 -13 17 -28 -6 -7 -11 -17 -20 -22 -20 -22
0 -50 41 -50 73 0 21 -8 41 -20 52 -11 10 -20 14 -20 9 0 -5 -5 -16 -10 -24
-7 -12 -13 -11 -34 10 -19 17 -26 34 -26 62 0 24 4 37 10 33 6 -3 10 -18 10
-33 1 -68 44 -68 55 0 8 46 10 45 20 -14 10 -62 55 -39 55 27 0 37 15 23 18
-17 2 -18 7 -37 12 -42 16 -16 40 2 40 31 0 49 17 59 24 14 5 -32 11 -41 26
-41 13 0 22 9 26 25 7 29 24 34 24 7 0 -10 -12 -29 -26 -43 -24 -22 -26 -23
-38 -6 -34 45 -65 -16 -41 -80 8 -22 24 -14 45 20 17 27 20 29 20 11 0 -12 7
-28 16 -35 14 -11 18 -10 30 6 16 22 19 71 4 80 -18 11 -11 25 12 22 19 -2 24
5 32 43 l10 45 7 -38 c3 -21 11 -43 17 -49z m490 35 c-1 -27 -3 -41 -5 -32 -2
9 -15 21 -29 28 -26 11 -25 35 1 25 8 -4 18 1 21 10 10 27 13 18 12 -31z
m-2179 22 c27 8 28 -11 1 -25 -26 -14 -40 -5 -40 23 0 16 3 18 9 8 5 -8 16
-11 30 -6z m-121 -16 c2 -13 -18 -21 -95 -38 -54 -12 -114 -27 -134 -32 -21
-5 -43 -7 -51 -4 -13 5 -44 63 -37 70 6 5 237 23 279 21 23 -1 36 -6 38 -17z
m2597 5 c55 -3 102 -8 104 -10 2 -2 -4 -19 -13 -38 -15 -32 -19 -34 -54 -29
-39 5 -244 54 -251 59 -2 2 -1 10 3 19 5 13 16 15 58 11 29 -3 98 -8 153 -12z
m-2925 -53 c23 -45 14 -56 -67 -80 -43 -13 -109 -34 -148 -46 -175 -57 -193
-60 -228 -41 -38 22 -127 113 -127 131 0 9 26 15 88 19 198 14 421 31 454 34
10 1 22 -7 28 -17z m347 2 c2 -6 -6 -14 -19 -18 -13 -3 -32 -10 -43 -15 -11
-5 -59 -27 -107 -49 l-88 -40 -20 26 c-11 14 -20 29 -20 34 0 4 21 12 48 19
140 33 170 40 197 49 35 11 47 9 52 -6z m183 1 c0 -8 5 -25 11 -37 12 -21 12
-21 35 9 21 26 24 27 24 8 0 -11 -11 -31 -25 -44 -25 -23 -25 -23 -40 -4 -8
10 -15 25 -15 32 0 21 -30 13 -40 -10 -8 -20 -9 -18 -9 14 -1 31 2 35 19 31
11 -3 20 0 20 6 0 6 5 11 10 11 6 0 10 -7 10 -16z m1730 6 c0 -4 -7 -13 -15
-20 -12 -10 -18 -10 -30 0 -23 19 -18 27 15 27 17 0 30 -4 30 -7z m487 -1 c15
-6 55 -17 88 -25 133 -30 155 -36 155 -40 0 -10 -23 -49 -33 -56 -5 -3 -24 2
-41 11 -17 10 -44 22 -61 28 -69 24 -155 69 -155 80 0 16 10 16 47 2z m523 -4
c348 -26 340 -26 340 -41 0 -17 -98 -114 -134 -134 -26 -14 -45 -10 -236 50
-30 10 -88 28 -128 40 -41 13 -76 28 -78 35 -7 17 14 65 28 65 7 0 100 -7 208
-15z m-2860 -48 c0 -18 -2 -19 -10 -7 -13 20 -13 43 0 35 6 -3 10 -16 10 -28z
m-50 8 c0 -8 -15 -22 -32 -31 -18 -9 -35 -20 -38 -23 -5 -6 -59 -42 -112 -74
-36 -22 -65 -21 -78 2 -13 24 -13 31 0 31 10 0 194 83 220 99 23 15 40 13 40
-4z m2284 0 c-4 -8 -8 -15 -10 -15 -2 0 -4 7 -4 15 0 8 4 15 10 15 5 0 7 -7 4
-15z m72 6 c5 -5 38 -21 74 -36 53 -22 144 -63 158 -71 2 -1 -1 -12 -8 -23
-17 -32 -44 -26 -133 32 -45 28 -90 57 -102 62 -23 12 -33 45 -13 45 8 0 18
-4 24 -9z m-295 -46 c22 7 25 -7 6 -24 -19 -16 -63 31 -52 56 6 16 9 14 17
-10 8 -21 14 -26 29 -22z m161 -16 c12 -8 2 -29 -13 -29 -5 0 -8 17 -8 38 1
21 3 29 6 17 3 -11 10 -23 15 -26z m-2202 19 c0 -6 -15 -24 -32 -39 -18 -16
-28 -28 -21 -29 7 0 24 10 38 23 l27 23 50 -48 c27 -26 58 -50 69 -53 10 -4
19 -13 19 -21 0 -8 4 -13 9 -10 4 3 40 -3 80 -14 54 -15 107 -21 222 -22 l150
-2 -5 -26 -5 -25 11 26 c9 23 16 26 57 25 45 -1 46 -2 44 -31 l-2 -30 11 32
c9 27 15 32 37 30 15 -2 32 -7 39 -11 7 -4 12 -2 12 4 0 7 7 10 15 6 8 -3 53
-6 100 -7 94 -2 94 -2 80 -68 -5 -23 -4 -31 4 -27 6 4 11 0 12 -11 0 -10 2
-48 3 -85 2 -38 -1 -68 -5 -68 -5 0 -9 4 -9 10 0 5 -7 7 -16 3 -9 -3 -20 0
-25 8 -6 10 -9 10 -9 2 0 -7 -7 -13 -15 -13 -8 0 -15 6 -15 13 0 8 -3 8 -8 2
-9 -14 -62 -18 -62 -4 0 6 -5 7 -12 2 -7 -4 -41 -9 -75 -9 -52 -2 -63 1 -63
15 0 14 -2 14 -10 1 -10 -17 -140 -24 -140 -7 0 5 -7 4 -16 -4 -13 -10 -17
-10 -24 0 -5 10 -9 10 -15 2 -5 -9 -10 -9 -20 -1 -10 8 -15 8 -21 -1 -5 -9
-10 -8 -19 5 -11 15 -13 15 -19 1 -9 -26 -27 -7 -21 23 4 23 3 22 -11 -7 -11
-24 -18 -31 -26 -23 -6 6 -17 8 -25 5 -13 -5 -15 1 -11 30 2 19 0 33 -4 31 -4
-3 -8 -16 -8 -29 0 -28 -19 -43 -30 -24 -7 10 -11 10 -24 0 -9 -8 -16 -9 -16
-4 0 5 -15 10 -32 11 -83 5 -83 5 -81 37 2 26 1 27 -7 9 -14 -35 -30 -38 -31
-7 -1 17 -3 21 -6 11 -6 -23 -33 -23 -33 -1 0 13 -3 14 -12 5 -20 -20 -28 -14
-28 19 0 31 0 31 -17 10 -12 -14 -22 -18 -31 -12 -11 7 -7 22 18 75 18 37 30
69 28 71 -3 3 -16 -19 -31 -48 -33 -67 -50 -83 -67 -62 -10 12 -4 28 36 91 27
42 54 84 59 94 6 10 17 25 24 34 7 9 9 16 4 16 -6 0 -27 -28 -48 -62 -55 -89
-96 -138 -116 -138 -34 0 -26 27 28 84 30 32 52 61 48 64 -4 4 -13 -1 -20 -12
-40 -53 -77 -86 -100 -86 -18 0 -25 5 -25 20 0 10 6 23 14 27 28 17 108 94
103 99 -3 4 -30 -14 -59 -40 -53 -46 -84 -56 -106 -34 -8 8 2 20 44 49 30 22
68 45 83 54 16 8 35 20 43 27 17 16 51 37 61 37 4 1 7 -4 7 -11z m2433 -79
c101 -63 112 -82 48 -82 -22 0 -44 12 -79 44 -26 24 -65 59 -85 77 -39 35 -42
65 -4 38 12 -9 66 -43 120 -77z m-1021 59 c2 -15 9 -22 21 -22 9 1 17 -4 17
-12 0 -23 -19 -26 -32 -4 -15 23 -38 27 -38 6 0 -17 -27 -29 -35 -15 -4 5 1
12 10 15 9 4 21 17 26 30 11 30 27 31 31 2z m-1752 -7 c15 -29 12 -48 -7 -54
-10 -3 -34 -14 -53 -25 -200 -111 -333 -173 -356 -168 -31 8 -124 84 -124 101
0 8 9 15 20 15 10 0 39 6 62 13 42 14 78 25 288 87 58 18 112 36 120 40 24 14
39 11 50 -9z m3005 9 c3 -5 19 -10 34 -10 15 0 31 -4 37 -8 5 -5 29 -14 54
-21 25 -7 101 -30 170 -51 69 -21 142 -42 163 -46 20 -3 39 -10 42 -14 6 -10
-61 -70 -106 -94 l-35 -19 -76 37 c-41 20 -80 36 -87 36 -6 0 -11 3 -11 8 0 4
-24 18 -53 32 -28 14 -54 27 -57 30 -3 3 -31 19 -64 35 -65 33 -73 44 -56 74
11 22 35 28 45 11z m-2565 -40 c0 -12 -3 -12 -16 2 -9 9 -13 21 -9 28 9 14 25
-5 25 -30z m2357 -130 c19 -24 15 -40 -11 -40 -16 0 -39 17 -70 51 -25 28 -46
48 -46 44 0 -6 53 -76 78 -103 17 -19 10 -37 -14 -37 -12 0 -40 32 -86 100
-37 55 -67 106 -67 113 -1 21 14 13 38 -19 13 -17 25 -28 29 -25 3 4 -7 19
-22 35 -16 16 -25 34 -22 40 6 10 160 -117 193 -159z m-3418 125 c7 -19 10
-39 7 -43 -14 -23 -417 -111 -546 -119 -82 -5 -86 -4 -114 23 -26 25 -86 111
-86 123 0 4 93 5 207 4 153 -1 246 4 352 18 79 10 146 21 149 24 11 11 18 4
31 -30z m4361 8 c73 -11 178 -16 341 -17 l236 -1 -9 -28 c-6 -15 -30 -50 -55
-77 -44 -49 -46 -50 -102 -50 -52 0 -286 41 -401 71 -101 26 -190 52 -190 56
0 2 7 20 15 39 13 31 19 35 37 30 13 -3 70 -14 128 -23z m-3230 -51 c-6 -2
-17 2 -26 9 -12 10 -12 14 -2 20 8 6 18 2 26 -9 8 -11 9 -18 2 -20z m1882 13
c3 -14 -1 -30 -8 -36 -11 -9 -14 -5 -14 25 0 41 15 49 22 11z m80 10 c0 -5 -5
-11 -11 -13 -6 -2 -11 4 -11 13 0 9 5 15 11 13 6 -2 11 -8 11 -13z m-1797 -54
c4 -7 -4 -11 -22 -10 -15 0 -22 3 -15 6 6 2 12 19 13 36 l1 32 8 -27 c4 -14
11 -31 15 -37z m1946 -18 c79 -114 95 -152 70 -168 -13 -7 -40 33 -86 128 -21
43 -42 80 -46 82 -8 5 33 -97 47 -117 24 -33 44 -78 44 -97 0 -23 -19 -28 -38
-9 -9 9 -12 6 -12 -16 0 -23 -3 -26 -20 -21 -12 4 -20 2 -20 -5 0 -7 -8 -10
-20 -7 -14 3 -20 0 -20 -10 0 -12 -3 -13 -14 -4 -11 9 -15 8 -21 -6 -6 -17 -7
-17 -21 1 -12 17 -14 18 -14 3 0 -22 -16 -22 -29 1 -9 15 -10 15 -11 -5 0 -27
-15 -30 -29 -5 -9 15 -10 15 -11 -5 0 -27 -15 -30 -29 -5 -10 16 -10 16 -11 0
0 -20 -20 -25 -21 -5 0 10 -2 10 -6 0 -6 -15 -33 -17 -33 -3 0 6 -4 10 -10 10
-6 0 -9 -5 -7 -12 2 -12 -42 -16 -60 -5 -6 4 -15 3 -18 -3 -5 -8 -11 -8 -20 0
-10 8 -15 8 -20 0 -5 -8 -11 -8 -21 1 -10 8 -14 8 -14 0 0 -20 -20 -12 -30 12
-9 22 -9 22 -9 1 -1 -18 -7 -21 -33 -20 -36 2 -36 2 -21 91 5 28 14 49 20 48
7 -2 8 9 1 37 -6 22 -15 37 -22 34 -6 -2 -17 5 -24 16 -10 17 -10 20 3 20 8 0
15 -5 15 -11 0 -8 5 -7 15 1 20 17 25 11 41 -52 12 -47 14 -48 10 -13 -2 22
-7 48 -11 58 -5 12 -2 17 9 17 9 0 19 -15 26 -40 6 -22 13 -40 16 -40 3 0 2
10 -1 23 -4 12 -9 30 -11 40 -9 28 21 20 34 -10 l12 -28 -5 28 c-6 31 1 34 27
10 16 -15 18 -15 13 -1 -5 13 1 16 29 16 20 0 36 -5 36 -11 0 -7 4 -6 9 2 13
21 61 23 68 4 5 -14 8 -13 14 4 10 29 50 24 67 -7 l13 -25 -4 28 c-4 23 0 30
22 39 14 6 29 11 34 10 4 -1 7 3 7 8 0 17 18 11 23 -7 4 -14 5 -12 6 5 1 21
21 33 21 12 0 -5 4 -10 9 -10 5 0 7 9 4 19 -4 18 13 50 28 51 3 0 30 -35 60
-77z m-1351 57 c0 -5 -5 -10 -11 -10 -5 0 -7 5 -4 10 3 6 8 10 11 10 2 0 4 -4
4 -10z m1698 -9 c35 -24 382 -201 396 -201 6 0 22 -9 35 -19 l24 -19 -43 -31
c-24 -17 -56 -31 -71 -31 -27 0 -125 62 -326 204 l-82 59 15 28 c17 34 18 34
52 10z m-2930 -3 c22 -22 12 -43 -39 -78 -27 -19 -70 -50 -94 -67 -24 -18 -63
-45 -88 -60 -25 -16 -71 -46 -102 -67 l-57 -39 -43 23 c-36 20 -73 57 -63 64
2 2 84 43 183 93 99 50 200 102 225 116 51 30 61 32 78 15z m552 -8 c0 -11 -7
-20 -15 -20 -15 0 -21 21 -8 33 12 13 23 7 23 -13z m1570 -11 c0 -10 -4 -19
-10 -19 -5 0 -10 12 -10 26 0 14 4 23 10 19 6 -3 10 -15 10 -26z m-1338 -4 c4
-20 1 -25 -14 -25 -14 0 -18 5 -14 16 3 9 6 20 6 25 0 20 18 7 22 -16z m150 0
c4 -19 1 -25 -13 -25 -16 0 -17 3 -7 25 6 14 12 25 13 25 2 0 5 -11 7 -25z
m-222 -17 c0 -5 -7 -8 -15 -8 -15 0 -20 21 -8 33 7 7 23 -11 23 -25z m150 6
c0 -8 -7 -14 -15 -14 -17 0 -18 2 -9 24 7 18 24 12 24 -10z m299 -18 c-6 -6
-13 -6 -21 2 -8 8 -8 15 2 28 13 15 15 14 21 -3 4 -10 3 -22 -2 -27z m511 13
c0 -12 -5 -19 -11 -17 -6 2 -10 7 -10 11 1 4 1 14 1 23 0 8 5 12 10 9 6 -3 10
-15 10 -26z m66 -6 c-11 -11 -19 6 -11 24 8 17 8 17 12 0 3 -10 2 -21 -1 -24z
m84 17 c0 -11 -4 -20 -10 -20 -5 0 -10 9 -10 20 0 11 5 20 10 20 6 0 10 -9 10
-20z m150 -12 c0 -5 -4 -8 -10 -8 -5 0 -10 10 -10 23 0 18 2 19 10 7 5 -8 10
-18 10 -22z m224 17 c3 -9 0 -15 -9 -15 -9 0 -12 6 -9 15 4 8 7 15 9 15 2 0 5
-7 9 -15z m-1110 -10 c4 -10 -1 -15 -14 -15 -13 0 -18 5 -14 15 4 8 10 15 14
15 4 0 10 -7 14 -15z m150 -1 c9 -23 8 -24 -14 -24 -11 0 -20 2 -20 4 0 12 13
36 20 36 4 0 11 -7 14 -16z m657 -7 c-13 -13 -26 -3 -16 12 3 6 11 8 17 5 6
-4 6 -10 -1 -17z m149 8 c0 -8 -4 -15 -10 -15 -5 0 -10 7 -10 15 0 8 5 15 10
15 6 0 10 -7 10 -15z m1605 -25 c155 -42 365 -81 503 -96 34 -3 62 -9 62 -12
-1 -16 -39 -53 -84 -81 -74 -46 -130 -43 -292 14 -175 62 -344 136 -344 151 0
19 22 64 29 60 3 -2 60 -18 126 -36z m-4267 1 c8 -22 7 -32 -1 -39 -37 -29
-338 -145 -463 -178 -76 -20 -164 10 -221 75 -30 33 -29 41 3 41 69 0 326 46
474 84 91 24 172 44 182 45 9 0 20 -11 26 -28z m1627 19 c3 -5 -1 -10 -10 -10
-9 0 -13 5 -10 10 3 6 8 10 10 10 2 0 7 -4 10 -10z m299 -6 c9 -23 8 -24 -14
-24 -19 0 -27 20 -13 33 11 11 20 8 27 -9z m296 -4 c0 -5 -5 -10 -11 -10 -5 0
-7 5 -4 10 3 6 8 10 11 10 2 0 4 -4 4 -10z m-1552 -33 c2 -9 -20 -42 -49 -74
-123 -135 -246 -255 -268 -264 -19 -8 -36 -4 -78 16 -29 15 -53 32 -53 38 1 7
53 47 118 89 64 42 160 108 212 147 52 38 100 68 105 67 6 -2 11 -10 13 -19z
m2850 -9 c26 -18 49 -36 52 -39 10 -11 199 -141 278 -190 29 -18 51 -37 49
-43 -11 -32 -109 -72 -139 -55 -14 8 -114 109 -246 249 -57 61 -72 87 -55 103
10 10 11 10 61 -25z m-1076 -23 c-2 -10 -10 -24 -17 -30 -7 -5 -21 -29 -31
-52 -10 -24 -22 -43 -27 -43 -5 0 -7 -5 -5 -12 8 -22 -36 -91 -60 -94 -12 -2
-22 1 -22 7 0 8 -4 8 -14 0 -10 -9 -16 -9 -21 -1 -4 6 -12 7 -18 3 -23 -16
-52 -9 -55 15 -2 12 1 22 6 22 5 0 7 22 4 49 -2 27 1 51 6 55 6 3 8 24 5 48
-5 36 -4 40 10 35 10 -4 17 -2 17 2 0 5 16 8 35 7 20 -2 38 1 41 6 3 5 38 8
77 6 65 -3 72 -5 69 -23z m-1779 -109 c-101 -144 -203 -275 -222 -285 -19 -10
-52 -4 -85 15 -17 10 -13 17 50 80 63 63 144 148 248 263 36 40 41 42 53 26
11 -16 5 -29 -44 -99z m-633 89 c21 -25 6 -48 -60 -88 -99 -61 -377 -198 -415
-204 -48 -8 -120 5 -146 26 l-23 18 42 27 c42 26 120 58 222 90 84 27 229 84
290 115 66 34 74 35 90 16z m3501 -87 c52 -56 130 -138 174 -182 l79 -80 -42
-18 c-29 -13 -47 -16 -60 -9 -19 10 -87 89 -116 136 -11 16 -23 34 -28 40 -5
5 -38 50 -73 100 -47 66 -61 93 -53 102 6 7 14 13 18 13 4 0 49 -46 101 -102z
m656 68 c38 -19 88 -42 113 -51 149 -55 237 -85 249 -85 20 0 157 -69 171 -85
18 -21 -29 -46 -97 -52 -51 -4 -68 -1 -138 30 -44 20 -100 47 -125 61 -25 14
-70 38 -100 52 -61 31 -190 112 -190 120 0 16 23 44 35 44 8 0 45 -15 82 -34z
m-3464 -97 c-49 -83 -58 -98 -122 -210 -60 -104 -65 -109 -101 -109 -56 0 -56
14 -3 82 47 60 144 193 207 286 25 37 31 41 43 29 12 -12 9 -23 -24 -78z
m2728 -1 c33 -50 97 -139 141 -196 84 -109 87 -121 27 -122 -32 0 -45 14 -102
115 -24 44 -61 105 -81 135 -20 30 -36 58 -36 63 0 4 -9 20 -20 35 -20 27 -19
62 1 62 4 0 36 -41 70 -92z m-3371 17 c0 -6 -45 -47 -100 -91 -234 -185 -323
-242 -393 -250 -37 -4 -57 -2 -71 9 -19 14 -17 17 37 74 31 33 67 64 79 70
166 79 324 161 368 192 49 35 56 37 68 23 6 -9 12 -21 12 -27z m4063 -8 c45
-30 148 -86 229 -126 125 -61 154 -80 198 -128 52 -57 54 -73 9 -75 -71 -4
-98 4 -175 55 -142 92 -340 244 -357 273 -8 14 -1 54 10 54 3 0 42 -24 86 -53z
m-773 -1 c0 -6 15 -34 33 -61 88 -134 169 -287 159 -297 -21 -21 -56 8 -93 78
-20 38 -63 121 -97 185 -46 87 -58 119 -50 127 9 9 16 8 30 -5 10 -9 18 -21
18 -27z m-2567 28 c4 -4 -14 -45 -40 -93 -25 -47 -68 -128 -94 -180 -59 -113
-65 -121 -95 -121 -32 0 -31 21 4 73 16 23 48 76 71 117 114 202 132 226 154
204z m43 -34 c7 -7 -18 -68 -75 -184 -94 -190 -105 -206 -132 -206 -27 0 -24
10 22 97 23 43 66 125 96 183 30 58 57 108 60 113 6 10 17 9 29 -3z m2502 -81
c111 -213 152 -293 152 -301 0 -15 -37 -8 -52 10 -9 9 -54 94 -101 189 -60
123 -81 175 -74 182 19 19 29 8 75 -80z m-3228 31 c0 -11 -184 -195 -282 -281
-79 -71 -106 -89 -154 -102 -48 -14 -61 -14 -71 -4 -25 25 33 93 137 162 52
35 151 108 220 164 111 89 126 99 138 84 6 -9 12 -20 12 -23z m3966 -9 c64
-59 183 -149 284 -216 81 -54 100 -72 132 -123 23 -38 20 -45 -21 -44 -77 2
-186 85 -407 311 -72 73 -81 86 -71 102 7 11 16 19 21 19 4 0 32 -22 62 -49z
m-3191 29 c3 -5 -10 -44 -29 -86 -20 -42 -36 -78 -36 -82 0 -5 -60 -138 -83
-182 -13 -26 -57 -41 -57 -19 0 19 181 379 190 379 5 0 12 -4 15 -10z m2444
-174 c50 -101 91 -189 91 -195 0 -6 -5 -11 -11 -11 -17 0 -49 20 -49 30 0 8
-60 140 -91 202 -4 9 -20 44 -33 79 -24 58 -26 79 -7 79 5 0 50 -83 100 -184z
m-2393 149 c4 -8 2 -21 -3 -28 -5 -6 -20 -41 -33 -77 -13 -36 -30 -76 -37 -90
-7 -14 -13 -33 -13 -42 0 -9 -4 -20 -10 -23 -5 -3 -14 -23 -20 -44 -11 -42
-43 -77 -60 -66 -15 9 -8 36 36 131 53 117 69 154 89 207 18 47 40 61 51 32z
m1504 -81 c-28 -124 -47 -218 -59 -293 -10 -61 -16 -79 -25 -70 -5 5 26 177
64 354 10 49 32 107 37 101 2 -2 -6 -43 -17 -92z m773 56 c9 -22 17 -46 17
-54 0 -7 7 -19 15 -26 8 -7 15 -18 15 -25 0 -6 6 -25 14 -41 72 -152 80 -175
65 -190 -14 -13 -17 -13 -31 3 -9 10 -28 50 -43 88 -15 39 -34 85 -42 104 -27
60 -61 165 -57 173 12 18 30 5 47 -32z m-2229 12 c7 -11 -97 -314 -118 -347
-18 -27 -46 -34 -46 -12 0 18 35 121 59 172 10 22 24 58 31 80 7 22 16 45 20
50 4 6 10 22 14 38 6 26 29 37 40 19z m2229 -166 c67 -173 76 -206 56 -206
-18 0 -34 23 -63 95 -41 103 -42 104 -66 183 -12 39 -27 72 -32 72 -6 0 -8 -6
-5 -12 2 -7 12 -38 22 -68 10 -30 22 -64 27 -75 23 -55 58 -162 58 -177 0 -9
-4 -19 -9 -23 -18 -10 -38 24 -66 112 -15 48 -38 121 -52 160 -25 76 -24 93 7
93 10 0 22 5 25 10 17 27 35 -4 98 -164z m-3053 114 c0 -13 -179 -229 -260
-314 -101 -105 -140 -127 -191 -106 -33 14 -38 42 -11 68 9 10 44 40 77 68
113 93 130 109 240 220 109 111 110 112 127 90 10 -11 18 -23 18 -26z m3925
-62 c115 -117 228 -221 274 -250 15 -10 37 -31 49 -47 l22 -30 -26 -20 c-33
-26 -45 -26 -93 -2 -54 28 -217 206 -364 399 -10 13 5 62 20 62 4 0 57 -51
118 -112z m-3049 89 c3 -8 -9 -51 -26 -97 -16 -46 -30 -90 -30 -98 0 -23 17
-4 23 25 5 28 31 109 48 151 8 20 14 22 46 16 21 -4 43 -9 48 -13 6 -3 19 -4
29 -2 16 2 18 -2 13 -26 -3 -15 -9 -36 -12 -45 -4 -10 -3 -18 3 -18 5 0 12 18
16 39 6 37 29 60 41 41 3 -5 3 -21 -1 -36 -5 -19 -4 -25 5 -20 6 4 11 18 11
31 0 21 4 23 46 23 42 0 45 -1 40 -21 -3 -12 -17 -83 -31 -157 -27 -136 -46
-180 -65 -150 -7 12 -12 12 -22 2 -20 -20 -28 -14 -28 21 l-1 32 -14 -32 c-18
-41 -45 -44 -45 -5 0 15 4 32 10 38 5 5 12 36 14 69 4 47 3 52 -3 25 -34 -137
-48 -169 -70 -156 -16 10 -14 37 9 108 49 160 63 209 57 214 -3 3 -13 -21 -22
-53 -10 -32 -25 -83 -35 -113 -10 -30 -24 -76 -30 -102 -9 -36 -17 -48 -31
-48 -11 0 -19 3 -19 6 0 9 28 107 62 216 16 54 28 103 26 110 -3 7 -16 -28
-31 -77 -68 -225 -79 -255 -98 -255 -23 0 -24 21 -4 75 26 72 14 72 -14 0 -16
-42 -33 -70 -41 -70 -25 0 -15 52 40 213 50 143 71 177 86 139z m2012 -14 c5
-10 17 -47 26 -83 10 -36 24 -78 31 -95 18 -43 45 -131 45 -149 0 -9 -8 -16
-19 -16 -16 0 -25 16 -44 78 -30 97 -54 179 -63 215 -3 15 -11 30 -16 33 -12
8 0 -56 13 -70 5 -6 9 -18 9 -28 0 -10 11 -50 24 -90 13 -40 27 -88 31 -105 6
-29 4 -33 -14 -33 -15 0 -23 10 -30 38 -6 20 -11 45 -11 55 0 9 -4 17 -10 17
-5 0 -10 11 -10 25 0 14 -9 51 -19 83 -11 31 -22 74 -26 94 -7 39 -9 38 62 47
7 0 16 -7 21 -16z m-97 -38 c8 -31 12 -47 49 -175 29 -99 35 -140 21 -140 -6
0 -20 14 -30 31 l-19 32 -4 -28 c-4 -41 -26 -42 -43 -3 l-14 33 -1 -32 c0 -36
-13 -43 -29 -15 -9 16 -10 16 -16 0 -4 -10 -11 -18 -16 -18 -12 0 -39 55 -39
81 0 13 -4 36 -9 53 -10 33 -26 108 -37 167 l-6 36 58 2 c31 0 59 2 60 4 2 1
18 3 36 2 27 0 33 -4 39 -30z m-1516 -23 l-5 -47 12 45 13 45 48 1 c43 1 48
-1 44 -17 -3 -11 -2 -19 3 -19 4 0 10 8 12 18 5 16 15 19 71 17 37 0 68 -3 71
-6 2 -2 -2 -33 -9 -69 -8 -36 -14 -69 -15 -74 0 -10 14 2 16 12 0 4 3 18 7 32
3 14 9 42 12 63 4 28 11 37 25 37 12 0 20 -7 21 -17 1 -15 2 -15 6 -2 3 13 19
16 79 17 69 2 75 0 69 -16 -12 -27 -17 -121 -6 -97 5 11 10 34 10 50 1 17 6
37 12 45 7 11 9 5 5 -25 -3 -22 -8 -78 -12 -125 -11 -142 -12 -152 -23 -163
-5 -5 -14 -6 -20 -3 -11 7 -9 32 9 111 5 22 9 51 9 65 0 46 -18 -2 -30 -81 -6
-41 -16 -80 -22 -87 -22 -27 -26 7 -11 88 21 113 28 182 15 154 -5 -12 -12
-43 -15 -70 -10 -75 -28 -158 -39 -171 -16 -22 -27 -14 -27 19 0 17 -3 29 -6
26 -3 -4 -5 -8 -3 -10 5 -6 -22 -48 -31 -48 -14 0 -12 54 5 130 16 72 18 125
4 70 -12 -42 -16 -63 -24 -115 -8 -47 -24 -85 -38 -85 -6 0 -7 30 -4 78 7 85
4 85 -13 2 -6 -30 -15 -62 -20 -70 -9 -13 -12 -12 -26 5 -14 19 -16 19 -25 2
-19 -32 -28 -7 -24 61 4 62 4 63 -5 22 -17 -83 -20 -90 -37 -90 -13 0 -15 9
-10 55 3 31 2 55 -4 55 -5 0 -9 -13 -9 -30 0 -39 -20 -80 -38 -80 -11 0 -13 9
-9 38 17 108 16 114 -5 43 -31 -98 -53 -108 -45 -20 7 69 3 67 -16 -7 -17 -69
-41 -72 -35 -5 6 59 -3 56 -21 -6 -15 -54 -46 -62 -38 -10 8 56 57 289 62 297
3 4 23 8 45 8 l39 1 -4 -47z m1166 18 l7 -25 1 26 c1 24 5 26 46 27 42 0 45
-2 46 -26 0 -15 5 -36 10 -47 7 -15 8 -7 5 28 -3 40 -1 47 12 45 16 -3 25 -32
56 -198 8 -41 18 -90 22 -107 5 -26 3 -33 -9 -33 -19 0 -25 15 -47 128 -10 52
-21 97 -25 100 -10 9 5 -99 16 -120 5 -9 9 -38 9 -63 0 -66 -21 -54 -42 26
l-17 64 5 -69 c5 -54 3 -67 -8 -64 -7 3 -18 20 -25 39 l-12 34 0 -38 c-1 -31
-4 -38 -18 -35 -13 2 -21 18 -27 51 -13 64 -24 59 -18 -8 4 -48 2 -55 -12 -49
-9 3 -20 20 -25 38 l-9 31 -1 -32 c-1 -41 -13 -47 -35 -21 -16 18 -17 27 -6
72 6 28 16 80 21 116 16 106 26 116 40 37 7 -38 8 -37 4 13 -2 30 -7 63 -11
73 -6 15 -3 18 17 15 15 -2 26 -12 30 -28z m-337 -23 c4 -27 1 -58 -7 -82 -8
-22 -17 -58 -21 -80 -4 -22 -12 -45 -17 -51 -5 -6 -8 -20 -8 -30 1 -11 1 -28
0 -39 -1 -17 -3 -18 -11 -5 -13 20 -13 70 0 70 12 0 13 51 1 82 -5 13 -13 46
-19 73 -6 28 -13 62 -16 78 -6 27 -6 27 43 27 l49 0 6 -43z m32 27 c-3 -9 -6
-20 -6 -25 0 -5 -4 -9 -10 -9 -5 0 -10 11 -10 25 0 16 6 25 16 25 11 0 14 -5
10 -16z m1780 -181 c25 -32 91 -102 145 -156 85 -85 97 -101 89 -118 -16 -29
-55 -34 -87 -11 -47 34 -86 81 -217 261 l-126 175 21 22 21 23 54 -70 c30 -38
75 -95 100 -126z m-3878 175 c20 -20 14 -35 -41 -111 -29 -39 -61 -85 -72
-102 -10 -16 -23 -35 -29 -41 -6 -7 -21 -25 -33 -40 -12 -16 -40 -52 -62 -81
-22 -28 -56 -63 -75 -78 -29 -22 -40 -25 -63 -18 -51 17 -41 44 47 129 70 68
156 167 274 318 31 39 36 42 54 24z m72 -82 c-1 -6 -24 -45 -53 -88 -230 -337
-250 -361 -294 -356 -16 2 -29 10 -31 20 -2 9 31 57 75 110 43 51 89 110 103
131 14 20 28 37 33 37 4 0 7 5 7 11 0 6 10 24 23 39 12 16 40 53 61 84 37 53
40 55 58 39 10 -9 18 -21 18 -27z m3657 -38 c32 -46 67 -94 76 -108 52 -76 95
-132 145 -189 66 -75 73 -104 26 -109 -27 -3 -37 4 -76 50 -24 29 -70 91 -101
138 -31 47 -75 111 -97 144 -75 110 -77 112 -55 136 10 11 19 20 20 20 2 0 29
-37 62 -82z m-3602 2 c17 -19 17 -21 -7 -52 -13 -18 -57 -87 -98 -153 -123
-200 -177 -263 -214 -249 -26 10 -19 39 22 91 21 26 78 109 127 183 106 160
135 200 145 200 4 0 15 -9 25 -20z m3592 -141 c56 -85 121 -178 145 -207 48
-59 55 -77 38 -96 -30 -37 -86 22 -214 227 -47 76 -86 141 -86 145 0 3 -10 16
-22 29 -21 22 -21 23 -3 43 10 11 23 19 29 17 6 -2 57 -73 113 -158z m-3534
97 c17 -13 13 -24 -69 -168 -134 -235 -167 -278 -211 -278 -35 0 -40 27 -11
58 22 24 103 145 154 229 80 133 106 173 112 173 4 0 15 -7 25 -14z m3476
-166 c62 -98 126 -196 142 -216 35 -44 36 -51 8 -59 -26 -8 -60 8 -79 38 -38
61 -152 251 -190 316 -40 70 -42 75 -24 88 10 7 21 13 24 13 4 0 57 -81 119
-180z m-3415 134 c17 -7 21 -34 7 -49 -5 -6 -31 -53 -58 -105 -108 -207 -155
-278 -188 -286 -46 -11 -52 10 -18 58 16 24 43 67 59 95 16 29 32 53 37 53 4
0 7 5 7 11 0 6 27 56 60 111 33 54 60 103 60 108 0 11 12 13 34 4z m3255 -21
c7 -16 24 -46 38 -68 46 -75 123 -206 123 -211 0 -2 16 -26 36 -54 37 -52 41
-82 11 -88 -24 -5 -51 20 -83 77 -78 136 -184 333 -184 339 0 12 22 32 35 32
7 0 17 -12 24 -27z m-3180 -22 c10 -7 -3 -39 -60 -147 -111 -214 -153 -274
-191 -274 -26 0 -22 19 16 77 18 28 40 64 48 80 9 15 28 51 43 78 113 208 111
207 144 186z m3129 -41 c13 -25 40 -74 59 -110 19 -36 51 -94 71 -130 19 -36
43 -76 53 -89 38 -48 14 -69 -34 -31 -36 29 -79 101 -215 364 -12 24 -12 30
-1 37 25 16 43 5 67 -41z m-3068 20 c18 -10 16 -17 -37 -118 -151 -290 -158
-302 -189 -302 -31 0 -30 16 4 71 15 24 43 73 61 109 19 36 38 67 43 68 4 2 8
9 8 15 0 7 10 32 23 57 64 124 57 116 87 100z m2996 -42 c14 -29 34 -68 45
-87 11 -19 40 -73 65 -120 25 -47 54 -101 65 -118 22 -35 18 -53 -11 -53 -22
0 -63 66 -168 273 -60 120 -67 139 -53 147 27 16 31 12 57 -42z m-2922 14 c3
-5 -30 -77 -72 -162 -96 -192 -101 -201 -120 -222 -16 -19 -52 -25 -52 -9 0 6
172 350 197 394 6 10 41 9 47 -1z m2866 -52 c16 -30 42 -82 57 -115 16 -33 47
-92 71 -132 46 -78 52 -103 24 -103 -26 0 -43 22 -88 110 -22 41 -41 77 -44
80 -13 13 -97 209 -92 215 17 17 46 -5 72 -55z m-2815 13 c-7 -31 -100 -241
-136 -307 -14 -28 -36 -56 -47 -64 -50 -33 -35 19 62 213 74 148 101 193 112
188 11 -4 14 -13 9 -30z m2751 -36 c16 -34 57 -118 92 -186 34 -68 62 -130 62
-137 0 -8 -9 -14 -20 -14 -13 0 -30 19 -55 61 -19 33 -35 62 -35 65 0 2 -13
32 -29 66 -61 130 -84 195 -75 209 11 18 34 -6 60 -64z m-2696 53 c20 -11 21
-8 -44 -165 -29 -68 -33 -78 -65 -145 -31 -64 -65 -100 -82 -83 -5 5 23 78 63
163 89 195 98 216 98 229 0 14 6 14 30 1z m2611 -11 c4 -8 15 -32 24 -54 9
-22 20 -49 25 -60 5 -11 17 -40 27 -65 10 -25 35 -78 56 -118 40 -79 44 -92
24 -92 -28 0 -67 58 -116 175 -12 28 -26 57 -31 66 -5 9 -12 33 -15 53 -4 20
-10 36 -14 36 -4 0 -12 13 -18 29 -16 43 18 70 38 30z m-2551 1 c18 -10 18
-12 -6 -72 -13 -34 -24 -67 -24 -72 0 -14 -51 -140 -79 -194 -18 -36 -46 -62
-65 -62 -13 0 -4 39 19 88 14 29 25 55 25 58 0 3 14 35 30 71 17 35 30 70 30
76 1 7 9 30 20 52 11 22 19 46 20 53 0 15 6 15 30 2z m2539 -128 c23 -59 55
-137 72 -173 35 -79 36 -91 7 -87 -28 4 -57 54 -104 183 -20 55 -43 114 -50
132 -8 17 -14 36 -14 42 0 6 -4 11 -10 11 -12 0 -13 -27 -1 -34 4 -3 14 -27
21 -53 7 -27 16 -52 20 -58 13 -19 80 -201 80 -218 0 -18 -17 -22 -36 -9 -6 4
-19 22 -28 40 -19 37 -116 314 -116 331 0 6 12 11 28 12 15 0 36 4 47 9 27 11
35 0 84 -128z m-2459 104 c0 -13 -79 -242 -104 -301 -20 -46 -44 -75 -63 -75
-20 0 -16 31 18 111 32 78 46 115 80 214 12 33 26 63 32 67 14 8 37 -1 37 -16z
m58 6 c10 -7 10 -15 -1 -43 -20 -48 -29 -92 -19 -85 5 3 17 33 26 66 15 53 20
60 42 60 20 0 23 -3 16 -17 -5 -10 -17 -54 -27 -98 -40 -183 -80 -282 -108
-272 -21 7 0 102 48 220 4 9 3 17 -2 17 -6 0 -24 -44 -42 -97 -17 -54 -40
-109 -50 -122 -19 -25 -41 -22 -41 5 0 15 52 177 70 219 5 11 12 31 15 45 15
57 38 110 49 110 6 0 17 -4 24 -8z m2219 -4 c4 -7 26 -68 49 -134 23 -67 49
-136 58 -154 19 -38 21 -86 5 -96 -24 -15 -61 64 -122 261 -9 28 -16 40 -16
28 -1 -13 15 -71 34 -129 35 -105 42 -148 27 -158 -23 -14 -45 33 -92 194 -8
25 -15 38 -17 30 -2 -8 8 -48 22 -89 41 -122 28 -188 -20 -96 l-20 38 -3 -41
c-7 -100 -50 -19 -92 173 -12 55 -25 115 -30 132 -9 36 0 48 29 38 11 -3 21
-18 24 -38 3 -18 10 -50 16 -72 10 -39 10 -38 6 15 -3 30 -8 65 -11 78 -5 18
-2 22 14 22 20 0 23 -6 56 -125 6 -23 -1 44 -10 93 -5 27 -3 32 13 32 14 0 24
-11 31 -32 l11 -33 -2 32 c-4 38 22 58 40 31z m-2104 -5 c4 -7 -32 -180 -61
-296 -12 -44 -38 -87 -53 -87 -14 0 -7 68 16 140 9 30 21 75 26 99 24 116 53
174 72 144z m67 -40 c-5 -16 -16 -64 -25 -108 -36 -174 -70 -254 -96 -228 -7
7 -1 49 19 129 16 65 35 146 42 179 15 66 25 78 51 64 14 -7 15 -15 9 -36z
m64 0 c-4 -21 -21 -95 -39 -164 -33 -134 -59 -189 -78 -170 -10 10 11 134 33
186 4 11 16 57 26 103 16 75 19 82 41 82 22 0 23 -3 17 -37z m76 23 c0 -7 -6
-36 -14 -62 -25 -86 -46 -182 -45 -201 1 -10 5 -5 9 12 4 17 20 74 34 128 14
53 26 106 26 117 0 15 7 20 25 20 14 0 25 -1 25 -2 0 -4 -41 -206 -48 -237 -3
-15 -1 -22 5 -18 6 4 21 63 34 132 22 115 26 125 46 125 18 0 22 -6 21 -30 -1
-17 2 -33 5 -37 4 -3 7 10 7 30 0 33 3 37 26 37 24 0 26 -3 22 -35 -2 -19 0
-35 4 -35 4 0 8 16 8 35 0 31 3 35 26 35 22 0 25 -4 21 -22 -3 -13 -8 -50 -11
-83 l-6 -60 15 55 c8 30 14 67 15 83 0 22 4 27 26 27 29 0 29 0 -3 -185 -8
-49 -17 -108 -20 -130 -6 -46 -26 -80 -42 -70 -14 8 -14 63 0 103 6 17 9 45 7
64 -2 25 -8 10 -21 -57 -18 -93 -40 -133 -56 -106 -5 8 -8 22 -6 32 13 66 16
113 6 99 -6 -8 -11 -25 -11 -36 0 -35 -29 -94 -46 -94 -20 0 -14 68 15 173 12
43 18 83 14 90 -3 6 -17 -34 -29 -90 -28 -123 -48 -173 -69 -173 -14 0 -16 9
-11 58 3 31 2 46 -2 32 -12 -43 -43 -91 -55 -87 -7 2 -11 19 -9 43 l3 39 -23
-39 c-27 -46 -48 -57 -48 -26 0 29 36 191 55 251 8 26 15 61 15 78 0 28 3 31
30 31 19 0 30 -5 30 -14z m356 -28 c-4 -24 -11 -76 -16 -116 -6 -40 -12 -77
-15 -82 -3 -5 -1 -11 4 -14 4 -3 16 47 25 112 21 143 21 142 45 142 18 0 20
-5 14 -61 -4 -44 -2 -60 6 -55 6 4 11 18 11 30 0 54 12 86 32 86 19 0 20 -5
15 -52 -3 -29 -12 -93 -21 -143 -18 -105 -19 -123 -7 -109 5 5 14 47 20 93 6
47 16 113 22 148 10 57 13 63 36 63 23 0 24 -2 19 -42 l-5 -43 11 43 c9 34 15
42 34 42 18 0 24 -6 24 -23 0 -13 -4 -27 -9 -33 -5 -5 -11 -45 -14 -89 l-6
-80 16 80 c22 118 26 120 34 11 6 -74 12 -102 24 -108 22 -13 19 -31 -5 -25
-14 4 -27 -4 -45 -26 l-25 -32 0 45 c0 33 -3 41 -10 30 -5 -8 -10 -31 -10 -51
0 -23 -7 -42 -20 -54 -28 -26 -42 -9 -30 35 14 53 27 170 19 170 -3 0 -12 -37
-18 -82 -20 -142 -22 -147 -51 -168 l-27 -20 3 48 c3 43 3 45 -8 20 -27 -64
-59 -33 -40 38 7 24 14 76 16 116 3 40 3 60 0 43 -13 -84 -45 -220 -53 -228
-21 -21 -33 5 -26 57 9 62 -2 56 -18 -10 -8 -32 -17 -49 -27 -49 -22 0 -19 51
21 295 14 88 15 90 40 90 20 0 21 -4 15 -42z m609 32 c3 -5 14 -10 23 -10 9 0
30 -7 46 -15 15 -8 32 -12 37 -9 5 3 9 -2 9 -11 0 -8 8 -19 18 -22 19 -8 42
-28 42 -38 0 -3 -19 7 -42 23 -54 36 -100 59 -138 67 -35 8 -50 25 -21 25 11
0 23 -4 26 -10z m272 -65 c7 -39 15 -74 18 -80 4 -8 -3 104 -8 140 -1 5 8 11
20 13 19 3 22 -3 26 -50 3 -29 11 -88 18 -131 12 -79 6 -108 -13 -72 -6 10
-21 27 -32 37 -117 103 -110 94 -90 114 14 14 18 30 16 62 -3 38 -1 43 15 40
14 -2 21 -20 30 -73z m113 36 c0 -22 5 -43 10 -46 7 -4 8 10 5 39 -5 43 -4 46
18 46 23 0 25 -5 31 -68 4 -37 13 -88 21 -112 12 -40 14 -42 14 -15 0 17 -6
57 -14 90 -21 87 -20 105 8 105 20 0 24 -9 46 -128 14 -70 31 -144 38 -166 12
-37 18 -86 9 -86 -24 0 -39 23 -58 83 -12 40 -23 66 -26 59 -2 -7 1 -27 7 -44
6 -17 11 -46 11 -64 0 -45 -26 -45 -45 -1 l-13 32 -4 -35 c-3 -35 -33 -52 -33
-19 0 8 -8 27 -18 42 -10 16 -23 70 -32 135 -8 59 -17 126 -21 150 -6 40 -6
42 20 42 24 0 26 -4 26 -39z m185 -11 c7 -25 18 -73 25 -107 7 -35 16 -63 21
-63 5 0 7 6 4 13 -6 18 -45 193 -45 201 0 4 12 6 27 4 29 -3 28 1 53 -131 5
-26 13 -62 19 -80 37 -121 42 -181 12 -163 -17 11 -38 57 -46 99 -4 20 -12 37
-17 37 -6 0 -7 -8 -4 -17 14 -35 26 -105 21 -114 -20 -32 -56 31 -79 141 -10
47 -24 113 -32 147 -18 81 -18 85 8 81 16 -2 24 -15 33 -48z m140 -27 c9 -43
28 -122 42 -176 23 -95 24 -135 3 -122 -18 11 -41 64 -61 143 -16 61 -49 217
-49 230 0 1 10 2 23 2 21 0 26 -8 42 -77z m-465 -225 c0 -10 -19 -12 -70 -10
-38 2 -103 -3 -146 -12 -85 -18 -144 -21 -144 -7 0 18 140 37 278 40 60 1 82
-2 82 -11z m-425 -28 c72 0 64 -16 -10 -19 -37 -1 -55 2 -55 10 0 7 -3 9 -7 6
-8 -8 -33 11 -33 25 0 6 11 3 25 -6 15 -10 46 -16 80 -16z m-168 -126 c-3 -3
-12 -4 -19 -1 -8 3 -5 6 6 6 11 1 17 -2 13 -5z m700 -20 c-3 -3 -12 -4 -19 -1
-8 3 -5 6 6 6 11 1 17 -2 13 -5z m-1797 -239 c162 -8 486 -24 720 -35 838 -40
1453 -84 1555 -111 119 -32 251 -111 345 -208 83 -85 92 -97 139 -184 68 -124
115 -262 145 -426 18 -94 22 -236 6 -226 -6 4 -10 -10 -10 -35 0 -36 -3 -41
-19 -35 -10 3 -24 -1 -31 -10 -7 -8 -22 -15 -34 -15 -11 0 -34 -9 -51 -20 -16
-11 -38 -20 -47 -20 -10 0 -23 -9 -30 -20 -7 -11 -20 -20 -28 -20 -15 0 -26
-15 -56 -82 -9 -21 -23 -38 -31 -38 -7 0 -13 -7 -13 -16 0 -18 -41 -97 -52
-102 -5 -2 -8 -9 -8 -16 0 -7 -11 -18 -25 -24 -14 -6 -25 -16 -25 -22 0 -5 -6
-10 -13 -10 -8 0 -24 -9 -36 -20 -13 -10 -44 -22 -69 -25 -26 -3 -67 -8 -92
-11 -25 -3 -136 0 -248 7 -159 10 -234 10 -350 1 -155 -12 -317 -40 -391 -66
-54 -20 -56 -20 -37 -1 8 8 26 15 40 15 19 0 26 5 26 20 0 13 7 20 20 20 17 0
18 3 8 25 -6 14 -15 25 -20 25 -4 0 -8 7 -8 16 0 12 3 14 13 6 7 -6 33 -10 58
-9 24 1 235 -2 469 -6 350 -7 434 -5 477 6 99 26 143 72 233 241 46 88 52 106
52 160 0 35 -5 62 -11 64 -6 2 -11 25 -11 52 0 125 -51 307 -111 398 -16 24
-29 45 -29 47 0 2 -19 24 -42 49 -47 48 -126 86 -218 105 -54 11 -435 35 -757
48 l-162 6 -9 -24 c-5 -13 -8 -55 -6 -94 1 -38 6 -180 9 -314 3 -135 8 -248
10 -251 2 -3 0 -24 -5 -46 -6 -24 -5 -43 0 -48 15 -15 12 -77 -5 -110 -8 -15
-15 -35 -15 -42 0 -8 -4 -14 -9 -14 -5 0 -8 17 -6 38 1 20 0 25 -2 10 -4 -25
-8 -28 -44 -28 -21 0 -39 -5 -39 -11 0 -6 -32 -9 -89 -8 -102 2 -116 -3 -100
-33 6 -11 8 -31 4 -45 -5 -22 -8 -24 -20 -12 -8 8 -16 28 -19 44 -7 47 -9 44
-15 -20 -4 -39 -10 43 -19 235 -25 582 -34 745 -43 754 -22 24 -25 -19 -13
-182 4 -64 3 -97 -5 -105 -6 -6 -13 -9 -15 -6 -10 10 -18 208 -8 225 7 13 6
22 -5 32 -12 13 -11 17 7 37 12 13 17 25 12 28 -19 12 -447 40 -819 53 l-191
7 5 106 c5 91 2 115 -16 169 -22 63 -61 134 -81 147 -14 9 -13 25 3 25 6 0
145 -7 307 -15z m639 -511 c2 -2 -19 -4 -47 -4 -29 0 -52 4 -52 9 0 8 90 3 99
-5z m608 -66 c-3 -8 -6 -5 -6 6 -1 11 2 17 5 13 3 -3 4 -12 1 -19z m1120 -110
c17 -20 18 -27 8 -46 -10 -19 -14 -20 -24 -8 -7 8 -11 23 -9 33 1 10 -1 24 -5
31 -14 21 8 13 30 -10z m-1559 -155 c5 -10 9 -43 10 -73 1 -30 6 -165 12 -300
12 -295 12 -350 3 -350 -29 1 -32 24 -38 275 -3 143 -8 290 -10 328 -3 43 -1
67 6 67 5 0 7 5 3 12 -12 18 -14 58 -4 58 5 0 13 -8 18 -17z m1722 -247 c0
-52 -6 -43 -13 18 -3 30 -1 43 4 35 5 -8 9 -32 9 -53z m-1293 -493 c-2 -16 -4
-3 -4 27 0 30 2 43 4 28 2 -16 2 -40 0 -55z m1650 25 c-3 -7 -5 -2 -5 12 0 14
2 19 5 13 2 -7 2 -19 0 -25z m-2117 -43 c0 -25 -190 -49 -204 -26 -9 14 15 19
79 14 33 -2 72 0 85 6 29 11 40 13 40 6z m160 -15 c0 -5 -11 -10 -25 -10 -14
0 -25 5 -25 10 0 6 11 10 25 10 14 0 25 -4 25 -10z m1940 -16 c0 -14 -74 -179
-82 -182 -4 -2 -8 -9 -8 -17 0 -7 -6 -17 -13 -23 -14 -12 -20 -98 -9 -118 10
-17 74 -95 98 -120 51 -53 113 -177 153 -306 23 -74 26 -92 12 -84 -5 3 -12
26 -15 51 -4 24 -11 47 -15 50 -5 2 -12 20 -15 39 -4 22 -14 37 -26 41 -20 6
-60 67 -60 91 0 8 -5 12 -11 9 -6 -4 -13 2 -16 14 -3 12 -8 21 -12 21 -3 0
-31 22 -61 50 -39 35 -57 46 -63 37 -5 -7 -7 2 -4 23 3 19 3 29 0 23 -9 -22
-41 -14 -62 16 -13 18 -21 45 -21 70 0 30 -4 41 -15 41 -8 0 -15 5 -15 10 0 6
7 10 15 10 8 0 15 5 15 10 0 6 -7 10 -15 10 -8 0 -15 5 -15 10 0 6 9 10 20 10
21 0 50 46 50 80 0 12 13 28 33 40 17 10 37 24 44 29 7 6 21 11 33 11 16 0 20
5 17 23 -2 12 -2 15 1 7 4 -12 7 -11 13 5 8 17 9 15 5 -8 -2 -17 1 -26 8 -24
6 2 12 16 14 30 2 15 8 27 13 27 5 0 9 -3 9 -6z m-2055 -35 c19 -9 18 -9 -3
-5 -12 2 -20 0 -16 -5 3 -5 14 -9 25 -9 10 0 19 -4 19 -9 0 -16 -31 -42 -41
-35 -6 3 -24 0 -40 -6 -24 -10 -35 -10 -54 0 -25 14 -45 7 -45 -16 0 -8 -4
-14 -10 -14 -5 0 -10 9 -10 19 0 14 -5 18 -20 14 -11 -3 -20 -12 -20 -19 0
-13 -25 -19 -57 -15 -7 1 -13 -3 -13 -10 0 -8 -4 -8 -15 1 -8 6 -20 10 -27 8
-7 -3 -26 16 -42 41 -15 25 -36 51 -45 58 -13 10 24 12 189 12 113 0 214 -5
225 -10z m-300 -149 c3 -5 1 -10 -4 -10 -6 0 -11 5 -11 10 0 6 2 10 4 10 3 0
8 -4 11 -10z m655 6 c0 -6 -61 -36 -73 -36 -27 0 -228 -101 -327 -165 -47 -31
-103 -64 -125 -75 -44 -21 -135 -44 -143 -36 -2 3 1 25 7 50 6 25 11 67 11 95
0 27 4 52 8 55 5 3 6 -8 4 -25 -3 -18 0 -29 7 -29 8 0 10 -12 8 -32 -2 -18 -2
-26 0 -17 2 10 12 20 21 23 16 6 35 17 72 41 16 10 20 11 63 13 15 1 36 11 47
22 12 12 20 15 20 8 1 -7 10 -2 20 11 11 13 31 24 45 24 14 0 22 4 19 9 -3 5
0 8 7 7 8 -2 25 3 39 10 17 10 25 11 28 2 5 -15 29 -14 35 2 7 19 207 60 207
43z m-430 -415 c14 -4 -24 -6 -85 -3 -60 2 -114 5 -120 7 -20 7 181 3 205 -4z
m26 -21 c13 0 24 -5 24 -11 0 -7 -11 -9 -32 -5 -18 4 -41 7 -50 7 -10 0 -21 5
-24 11 -5 8 3 9 26 5 18 -4 43 -7 56 -7z m535 -33 c-17 -17 -24 -1 -10 25 12
21 14 21 17 4 2 -10 -1 -23 -7 -29z m531 34 c-11 -7 -10 -10 3 -15 9 -3 26 -6
38 -7 15 -1 10 -4 -13 -10 -48 -12 -117 -2 -141 22 -19 19 -18 19 54 19 43 0
67 -4 59 -9z m294 -9 c-21 -2 -42 0 -47 5 -4 4 13 6 39 3 l47 -5 -39 -3z
m-1456 -2 c0 -5 -4 -10 -10 -10 -5 0 -10 5 -10 10 0 6 5 10 10 10 6 0 10 -4
10 -10z m1453 -7 c30 -3 47 -1 47 6 0 27 174 -4 255 -45 50 -25 99 -78 141
-151 17 -30 20 -43 12 -63 -9 -25 -10 -25 -24 -5 -8 11 -22 29 -32 40 -9 11
-28 36 -41 56 -13 20 -40 47 -59 60 -20 13 -40 29 -46 34 -26 25 -127 45 -227
47 -57 0 -110 5 -116 11 -9 6 -13 6 -13 -2 0 -15 -37 -14 -46 1 -5 8 0 9 15 5
15 -3 24 0 28 10 4 11 13 13 32 8 14 -4 47 -9 74 -12z m-1265 -335 c-4 -318
-3 -346 11 -157 7 101 8 86 10 -146 1 -143 6 -305 11 -360 6 -71 5 -102 -3
-107 -8 -5 -8 -16 0 -42 6 -19 7 -36 3 -38 -4 -2 -10 -20 -14 -40 -6 -31 -4
-38 9 -38 11 0 15 -11 15 -45 0 -45 -14 -61 -24 -27 -3 9 -4 5 -2 -10 2 -19
-1 -25 -11 -21 -7 3 -13 15 -13 27 0 13 -12 28 -31 39 -23 13 -29 22 -24 35 8
20 13 227 19 772 5 393 10 460 37 460 8 0 10 -81 7 -302z m19 170 c-2 -13 -4
-5 -4 17 -1 22 1 32 4 23 2 -10 2 -28 0 -40z m0 -50 c-3 -8 -6 -5 -6 6 -1 11
2 17 5 13 3 -3 4 -12 1 -19z m0 -55 c-3 -10 -5 -4 -5 12 0 17 2 24 5 18 2 -7
2 -21 0 -30z m0 -95 c-3 -8 -6 -5 -6 6 -1 11 2 17 5 13 3 -3 4 -12 1 -19z
m-177 -967 c0 -5 -27 -14 -61 -21 -52 -11 -62 -11 -70 1 -7 11 1 15 34 19 76
9 97 9 97 1z m600 -27 c0 -2 -7 -4 -15 -4 -8 0 -15 4 -15 10 0 5 7 7 15 4 8
-4 15 -8 15 -10z m818 -1 c-27 -2 -69 -2 -95 0 -27 2 -5 3 47 3 52 0 74 -1 48
-3z m-1264 -29 c3 -8 2 -12 -4 -9 -6 3 -10 10 -10 16 0 14 7 11 14 -7z m-294
-3 c0 -5 -12 -12 -27 -14 l-28 -4 27 -2 c15 0 33 6 42 14 16 16 71 21 62 6 -3
-5 -14 -7 -25 -4 -11 3 -21 -2 -24 -11 -7 -19 9 -22 16 -3 4 9 8 9 15 -2 7
-10 11 -10 17 -1 6 9 10 9 16 -1 8 -12 11 -11 19 1 9 13 11 13 20 0 5 -8 10
-32 10 -52 0 -34 3 -38 25 -38 23 0 25 -4 25 -40 0 -29 -4 -40 -15 -40 -8 0
-15 -9 -15 -20 0 -17 -7 -20 -39 -20 -30 0 -40 -4 -44 -20 -4 -15 -14 -20 -44
-21 -30 0 -34 -2 -18 -9 11 -5 14 -9 7 -9 -7 -1 -25 -12 -40 -26 -21 -20 -24
-27 -13 -34 16 -10 6 -31 -15 -31 -8 0 -13 -6 -11 -12 1 -8 -11 -14 -28 -16
-16 -2 -34 -10 -38 -18 -4 -8 -24 -14 -45 -15 -33 -1 -34 -2 -12 -9 14 -4 18
-8 10 -9 -205 -15 -325 -21 -510 -26 -124 -3 -251 -8 -282 -10 -32 -2 -58 -2
-58 1 0 3 9 23 20 45 60 117 72 222 41 351 -16 69 -16 77 -2 76 185 0 878 22
949 31 6 0 12 -3 12 -8z m257 -25 c-7 -14 -13 -23 -15 -21 -7 6 9 45 18 45 4
0 3 -11 -3 -24z m-53 3 c27 22 27 -7 0 -38 -32 -39 -44 -39 -44 -1 0 17 -5 30
-12 30 -9 0 -8 3 2 10 9 5 19 5 27 -2 9 -7 17 -7 27 1z m1881 -329 c-10 -11
-24 -20 -31 -20 -7 0 -17 -6 -21 -12 -14 -23 -99 -60 -188 -83 -137 -36 -203
-41 -615 -50 -298 -6 -559 -14 -725 -20 -71 -3 -218 -8 -325 -11 -302 -8 -449
-12 -655 -19 -403 -14 -446 -14 -452 3 -5 12 -8 12 -20 -4 -12 -16 -13 -16
-13 -1 0 14 -10 17 -57 17 -38 1 -53 4 -43 9 22 13 702 37 2157 77 681 18 757
27 928 108 39 18 72 31 74 30 2 -2 -4 -13 -14 -24z m-2160 -90 c-3 -5 -11 -10
-16 -10 -6 0 -7 5 -4 10 3 6 11 10 16 10 6 0 7 -4 4 -10z m-935 -130 c0 -5 -4
-10 -10 -10 -5 0 -10 5 -10 10 0 6 5 10 10 10 6 0 10 -4 10 -10z m40 0 c0 -5
-4 -10 -10 -10 -5 0 -10 5 -10 10 0 6 5 10 10 10 6 0 10 -4 10 -10z m-69 -222
c-1 -32 0 -67 4 -78 19 -59 138 -65 402 -20 98 17 230 40 293 50 188 32 391
53 465 47 174 -13 295 -107 341 -263 25 -88 15 -297 -19 -381 -46 -114 -107
-183 -219 -246 -59 -34 -88 -34 -120 1 -29 30 -124 182 -134 214 -5 16 -18 -1
-67 -83 -33 -57 -85 -146 -115 -197 -30 -51 -52 -95 -49 -98 3 -3 74 18 159
46 116 39 173 53 235 57 79 6 86 4 148 -26 199 -98 254 -391 124 -658 -51
-107 -165 -229 -251 -268 -117 -54 -235 -53 -347 1 -92 45 -178 138 -311 333
l-64 93 -50 -58 c-125 -149 -307 -301 -421 -355 -124 -58 -216 -70 -338 -44
-223 47 -401 262 -458 555 -21 109 -16 339 10 445 50 207 173 373 337 456 85
43 88 44 188 44 90 0 107 -3 156 -28 119 -59 215 -171 391 -454 52 -84 99
-161 104 -171 31 -56 137 -222 144 -226 10 -6 81 92 81 112 0 6 -5 12 -10 12
-17 0 -89 121 -107 180 -24 78 -24 227 0 263 18 28 62 55 72 45 3 -3 -6 -31
-21 -62 -32 -71 -39 -119 -25 -173 21 -77 88 -133 160 -133 28 0 36 10 114
143 126 211 200 342 246 435 23 45 48 82 56 82 11 0 13 -15 8 -82 -4 -69 -2
-92 16 -138 56 -148 161 -209 235 -135 65 65 92 155 83 286 -9 141 -57 222
-162 276 -101 52 -294 40 -815 -48 -339 -58 -510 -63 -550 -15 -17 21 48 328
69 324 12 -2 14 -16 12 -60z m4070 -154 c-11 -54 -55 -220 -97 -368 -62 -214
-75 -272 -66 -285 22 -30 39 -66 46 -94 l7 -28 -50 7 -50 6 -15 -53 c-184
-642 -208 -733 -204 -779 4 -46 23 -48 78 -11 38 25 46 28 53 15 10 -18 -12
-40 -88 -89 -58 -38 -170 -95 -185 -95 -5 0 -10 10 -10 21 0 31 62 280 115
459 25 85 52 180 60 210 39 141 86 306 90 319 4 11 -4 13 -45 8 -184 -22 -413
-234 -516 -479 -57 -134 -79 -302 -50 -373 13 -30 20 -35 48 -35 124 0 322
323 403 658 21 87 35 80 35 -18 0 -170 -123 -417 -305 -611 -98 -106 -177
-159 -233 -159 -55 0 -74 35 -73 135 2 363 364 865 698 968 l72 22 37 130
c116 410 119 444 35 432 -23 -3 -41 -4 -41 -2 0 2 -3 10 -6 19 -4 11 13 24 63
50 37 19 100 55 138 79 39 24 71 43 73 42 2 -1 -6 -47 -17 -101z m279 -275
c15 -28 12 -59 -11 -95 -36 -60 -89 -41 -89 31 1 75 70 120 100 64z m-97 -376
c-8 -85 -60 -282 -138 -528 -97 -302 -115 -367 -115 -405 0 -37 18 -46 62 -31
30 11 47 4 48 -19 0 -6 -150 -96 -208 -125 -19 -9 -36 -14 -39 -11 -3 3 0 49
7 103 13 107 43 218 148 543 76 236 98 320 89 344 -8 20 -39 20 -78 1 -16 -9
-34 -13 -39 -10 -23 14 -5 34 68 73 42 23 102 57 132 76 30 19 58 35 61 35 4
1 4 -20 2 -46z m-1593 -8 c0 -60 -40 -222 -101 -414 -17 -51 -28 -95 -26 -97
2 -2 36 45 77 104 169 247 320 406 412 434 33 10 41 9 59 -8 18 -16 20 -26 15
-74 -5 -52 -76 -277 -146 -460 -100 -265 -144 -407 -134 -434 9 -22 46 -20 78
5 26 21 46 19 46 -5 0 -30 -220 -166 -268 -166 -40 0 62 365 217 778 33 89 61
176 61 192 0 124 -260 -172 -413 -470 -47 -93 -112 -249 -162 -392 -15 -41
-23 -49 -78 -76 -34 -17 -62 -30 -63 -29 -1 1 20 70 48 152 121 361 232 772
222 818 -6 30 -31 35 -78 17 -23 -8 -26 -7 -26 13 0 18 16 29 88 61 48 22 103
50 122 62 47 30 50 30 50 -11z m-350 0 c8 -10 10 -30 6 -57 l-7 -43 -97 0
c-93 0 -102 -2 -174 -38 -125 -61 -207 -171 -277 -371 -62 -174 -89 -369 -62
-438 27 -70 96 -89 162 -43 82 55 203 265 253 439 44 150 31 286 -28 286 -47
0 -79 -42 -144 -190 -10 -23 -11 -21 -11 21 -2 110 130 269 223 269 33 0 83
-51 96 -98 27 -99 3 -231 -70 -377 -63 -126 -129 -215 -244 -330 -100 -99
-165 -138 -234 -139 -39 -1 -48 3 -77 37 -85 98 -68 315 45 553 63 134 136
240 231 334 145 142 362 241 409 185z m-1143 -2076 c31 -12 121 -102 133 -133
4 -12 7 -195 6 -408 l-1 -388 43 0 43 0 -2 299 c-1 164 2 304 6 311 12 19 105
7 122 -16 11 -15 13 -75 11 -306 l-3 -288 43 0 42 0 0 398 c0 450 -4 424 85
497 38 31 56 39 100 43 63 5 91 -1 123 -25 122 -93 115 -62 113 -525 l-2 -388
43 0 43 0 -3 296 c-2 201 1 300 8 309 15 19 109 30 123 16 16 -16 20 -590 5
-609 -9 -11 -3 -13 36 -10 l47 3 0 375 c0 220 5 391 11 415 7 30 23 51 64 85
62 51 79 58 148 59 65 1 143 -48 180 -115 l26 -46 1 -389 2 -389 801 -3 c902
-5 920 -6 1151 -82 322 -105 629 -335 808 -605 20 -30 41 -60 45 -65 16 -19
102 -199 102 -212 0 -7 4 -21 9 -31 36 -71 81 -246 81 -315 0 -25 5 -49 10
-52 6 -4 10 -65 10 -150 0 -85 -4 -146 -10 -150 -5 -3 -10 -27 -10 -52 0 -41
-9 -83 -41 -189 -5 -17 -9 -38 -9 -47 0 -10 -4 -25 -9 -35 -5 -9 -13 -28 -18
-42 -26 -65 -69 -155 -75 -158 -5 -2 -8 -10 -8 -17 0 -23 -107 -184 -173 -260
-153 -178 -321 -306 -537 -410 -30 -15 -63 -31 -72 -36 -10 -5 -26 -9 -36 -9
-10 0 -22 -4 -27 -8 -21 -17 -197 -66 -305 -84 -85 -15 -5256 -23 -5285 -9
-11 6 -38 12 -60 15 -206 25 -479 136 -664 270 -139 100 -327 294 -397 409
-16 27 -34 56 -39 65 -46 74 -93 176 -121 262 -8 25 -19 61 -26 80 -37 113
-50 207 -55 404 -2 110 0 173 7 180 5 5 10 23 10 40 0 35 27 154 40 178 6 10
10 29 10 42 0 14 5 28 10 31 6 3 10 15 10 26 0 10 4 27 9 37 5 9 26 53 47 97
62 131 154 269 249 374 76 84 276 245 350 281 17 8 32 18 35 21 14 16 226 110
280 124 14 3 39 10 55 15 112 32 197 50 243 50 28 0 52 5 52 10 0 7 262 10
765 10 659 0 765 2 765 14 0 13 4 13 28 0 15 -7 46 -14 70 -14 l42 0 0 78 c0
42 2 224 3 404 l2 326 56 56 c30 30 66 60 80 65 33 13 111 13 146 0z"/>
<path d="M9385 13381 c-7 -12 12 -24 25 -16 11 7 4 25 -10 25 -5 0 -11 -4 -15
-9z"/>
<path d="M9460 13365 c0 -4 7 -20 16 -37 23 -45 5 -49 -84 -22 -42 13 -77 22
-79 20 -2 -2 4 -18 15 -35 14 -22 21 -28 30 -19 8 8 23 8 57 -2 40 -11 49 -19
70 -60 39 -78 127 -140 196 -140 53 0 31 57 -44 111 -47 34 -46 34 17 13 26
-9 49 -14 52 -11 6 6 -23 67 -32 67 -4 0 -4 -7 0 -15 7 -20 0 -19 -93 10 -77
25 -81 27 -81 55 0 17 2 30 4 30 3 0 41 -13 86 -30 114 -42 138 -40 104 9 -12
16 -19 19 -24 11 -5 -9 -32 -4 -104 19 -103 33 -106 34 -106 26z m88 -136 c14
0 13 -2 -3 -9 -18 -7 -17 -9 10 -19 71 -26 125 -65 125 -89 0 -23 -74 -9 -115
23 -50 37 -88 116 -49 101 9 -3 23 -6 32 -7z"/>
<path d="M9467 13083 c-9 -9 19 -52 57 -86 33 -30 31 -30 -35 -11 -20 6 -21 3
-15 -22 8 -31 26 -56 26 -36 0 19 32 14 122 -17 45 -17 84 -28 86 -27 10 11
-17 35 -64 55 -31 13 -77 44 -102 68 -51 49 -47 49 58 10 101 -38 110 -40 110
-25 0 7 -8 24 -17 37 -14 20 -18 22 -22 9 -5 -14 -17 -11 -86 18 -81 34 -106
40 -118 27z"/>
<path d="M9470 12885 c0 -77 157 -189 219 -156 34 19 25 51 -28 102 -66 64
-151 81 -151 31 0 -21 30 -52 49 -52 7 0 3 9 -10 19 -21 17 -22 20 -7 26 39
15 138 -39 138 -76 0 -15 -7 -19 -34 -19 -75 0 -146 54 -146 111 0 19 -5 29
-15 29 -8 0 -15 -7 -15 -15z"/>
<path d="M9349 12709 c-51 -19 -58 -67 -34 -231 17 -110 15 -128 -12 -129 -16
0 -16 -1 2 -9 62 -27 70 -6 50 129 -27 180 -17 221 54 221 51 0 71 -22 46 -50
-10 -11 -29 -20 -42 -20 -27 0 -31 -15 -5 -25 9 -3 38 -21 65 -38 33 -23 46
-38 45 -52 -2 -16 -10 -20 -35 -19 -37 2 -44 -11 -13 -21 11 -4 34 1 52 9 74
37 63 11 -18 -44 -112 -76 -134 -119 -99 -194 43 -90 227 -103 281 -21 43 66
35 126 -26 203 l-39 50 39 31 c62 50 70 123 18 178 -47 50 -141 49 -168 -2
l-13 -25 -15 21 c-15 21 -70 50 -94 48 -7 0 -25 -5 -39 -10z m286 -23 c71 -30
74 -88 8 -151 -62 -60 -70 -56 -92 38 -16 69 -14 94 11 111 27 19 30 20 73 2z
m-116 -134 c1 -11 -25 2 -68 35 -2 1 7 11 20 22 l24 19 12 -31 c6 -18 12 -38
12 -45z m139 -156 c37 -56 41 -97 12 -144 -28 -46 -76 -72 -133 -72 -92 0
-146 59 -114 125 18 37 161 146 187 142 8 -1 30 -24 48 -51z"/>
<path d="M9385 11821 c-7 -12 12 -24 25 -16 11 7 4 25 -10 25 -5 0 -11 -4 -15
-9z"/>
<path d="M9460 11805 c0 -4 7 -20 16 -37 23 -45 5 -49 -84 -22 -42 13 -77 22
-79 20 -2 -2 4 -18 15 -35 14 -22 21 -28 30 -19 8 8 23 8 57 -2 40 -11 49 -19
67 -56 36 -77 128 -144 198 -144 53 0 30 58 -44 111 -46 34 -45 34 18 13 26
-9 49 -14 52 -11 6 6 -23 67 -32 67 -4 0 -4 -7 0 -15 7 -20 0 -19 -93 10 -77
25 -81 27 -81 55 0 17 2 30 4 30 3 0 41 -13 86 -30 74 -27 120 -37 120 -25 0
2 -5 16 -12 30 -12 27 -24 32 -30 13 -3 -8 -33 -2 -100 20 -102 34 -108 35
-108 27z m88 -136 c14 0 13 -2 -3 -9 -18 -7 -17 -9 10 -19 71 -26 125 -65 125
-89 0 -23 -74 -9 -115 23 -50 37 -88 116 -49 101 9 -3 23 -6 32 -7z"/>
<path d="M9467 11523 c-9 -9 19 -52 57 -86 24 -22 26 -27 11 -23 -11 3 -33 8
-48 12 l-28 6 18 -37 c10 -20 19 -32 21 -26 6 17 35 13 124 -18 45 -17 84 -28
86 -27 10 11 -17 34 -63 55 -53 23 -151 98 -141 108 3 3 38 -8 78 -25 97 -39
128 -46 128 -28 0 17 -39 66 -40 49 0 -20 -21 -16 -98 17 -72 31 -93 35 -105
23z"/>
<path d="M9474 11335 c-24 -62 134 -193 206 -170 49 15 31 69 -43 129 -45 36
-119 44 -125 13 -4 -21 24 -57 46 -57 9 0 6 7 -9 19 -21 17 -22 20 -7 26 39
15 138 -39 138 -76 0 -43 -128 -9 -164 43 -9 12 -16 35 -16 50 0 31 -17 47
-26 23z"/>
<path d="M9349 11149 c-51 -19 -58 -67 -34 -228 16 -110 13 -130 -19 -132 -12
-1 -6 -5 18 -11 60 -16 62 -6 35 167 -21 138 -6 185 60 185 51 0 71 -22 46
-50 -10 -11 -29 -20 -42 -20 -36 0 -27 -12 43 -55 49 -30 64 -45 62 -60 -2
-15 -11 -20 -35 -20 -37 0 -43 -10 -13 -20 11 -3 36 1 55 11 20 9 39 14 42 10
3 -3 4 -8 2 -9 -2 -2 -39 -29 -81 -60 -42 -31 -82 -66 -89 -78 -15 -28 -6 -91
17 -122 57 -77 219 -76 273 2 42 60 33 121 -29 199 l-39 50 39 31 c44 35 61
80 49 125 -25 90 -143 122 -195 54 l-18 -24 -25 28 c-29 31 -82 42 -122 27z
m286 -23 c71 -30 74 -88 8 -151 -26 -25 -50 -45 -54 -45 -13 0 -26 26 -37 78
-17 76 -15 99 10 116 27 19 30 20 73 2z m-119 -133 c-4 -4 -24 5 -55 26 -12 8
-11 13 10 29 l24 20 13 -35 c6 -20 10 -38 8 -40z m142 -157 c37 -56 41 -97 12
-144 -29 -48 -75 -72 -138 -72 -48 0 -58 4 -88 34 -38 38 -41 54 -19 96 17 34
162 141 185 137 8 -1 30 -24 48 -51z"/>
<path d="M9390 10154 c0 -9 5 -14 12 -12 18 6 21 28 4 28 -9 0 -16 -7 -16 -16z"/>
<path d="M9460 10145 c0 -4 7 -20 16 -37 23 -45 5 -49 -84 -22 -42 13 -78 22
-80 20 -3 -3 19 -44 36 -66 1 -2 7 2 12 9 7 12 16 12 54 1 39 -11 49 -19 75
-64 33 -59 60 -85 116 -115 48 -25 105 -28 105 -6 0 25 -31 66 -74 96 -45 33
-44 34 14 14 23 -8 47 -15 52 -15 13 0 -1 42 -19 60 -14 13 -15 13 -10 -2 8
-23 9 -23 -90 7 -80 25 -83 27 -83 55 0 17 2 30 4 30 3 0 41 -13 86 -30 74
-27 120 -37 120 -25 0 2 -5 16 -12 30 -12 27 -24 32 -30 13 -3 -8 -33 -2 -100
20 -102 34 -108 35 -108 27z m83 -135 c8 0 7 -3 -2 -9 -10 -6 -4 -12 22 -20
48 -16 117 -67 117 -87 0 -25 -73 -12 -115 21 -50 37 -88 116 -49 101 9 -3 21
-6 27 -6z"/>
<path d="M9465 9860 c-3 -5 16 -33 42 -61 32 -35 42 -50 28 -46 -11 3 -33 9
-48 13 l-28 6 17 -35 c14 -29 20 -33 28 -23 9 12 25 9 91 -14 44 -15 88 -31
98 -35 18 -7 22 2 9 20 -4 6 -37 25 -73 43 -36 18 -81 49 -100 69 -38 40 -36
40 71 0 101 -38 110 -40 110 -25 0 7 -8 24 -17 37 -14 20 -18 22 -22 9 -5 -14
-17 -11 -86 18 -84 35 -110 40 -120 24z"/>
<path d="M9470 9665 c0 -77 157 -189 219 -156 34 19 25 51 -28 102 -66 64
-151 81 -151 31 0 -21 30 -52 49 -52 7 0 3 9 -10 19 -21 17 -22 20 -7 26 39
15 138 -39 138 -76 0 -15 -7 -19 -37 -19 -73 1 -145 58 -145 114 0 15 -6 26
-14 26 -8 0 -14 -7 -14 -15z"/>
<path d="M9349 9489 c-51 -19 -58 -67 -34 -228 16 -105 13 -131 -14 -132 -12
0 -12 -2 4 -9 62 -27 70 -6 50 129 -27 184 -18 221 57 221 48 0 67 -23 43 -50
-10 -11 -29 -20 -42 -20 -36 0 -27 -12 43 -55 49 -30 64 -45 62 -60 -2 -16
-10 -20 -35 -19 -36 2 -44 -11 -13 -21 11 -3 36 1 55 11 42 20 61 9 25 -15
-158 -105 -183 -145 -144 -227 43 -91 223 -101 283 -15 42 60 33 121 -29 199
l-39 50 39 31 c84 68 62 184 -41 211 -45 12 -78 2 -106 -33 -19 -25 -20 -25
-32 -5 -12 20 -69 49 -93 47 -7 0 -25 -5 -39 -10z m308 -35 c51 -33 36 -102
-33 -158 -44 -35 -55 -26 -72 52 -17 77 -15 99 11 117 24 17 57 13 94 -11z
m-141 -121 c-4 -4 -24 5 -55 26 -12 8 -11 13 10 29 l24 20 13 -35 c6 -20 10
-38 8 -40z m142 -157 c37 -56 41 -97 12 -144 -45 -74 -158 -98 -219 -47 -59
51 -49 101 33 163 95 72 111 82 126 79 8 -1 30 -24 48 -51z"/>
<path d="M9390 8595 c0 -9 5 -15 11 -13 6 2 11 8 11 13 0 5 -5 11 -11 13 -6 2
-11 -4 -11 -13z"/>
<path d="M9460 8585 c0 -4 7 -20 16 -37 23 -45 5 -49 -84 -22 -42 13 -78 22
-80 20 -3 -3 19 -44 36 -66 1 -2 7 2 12 9 7 12 16 12 55 1 40 -11 49 -19 70
-60 40 -79 125 -140 195 -140 55 0 33 56 -43 111 -47 34 -46 34 17 13 26 -9
49 -14 52 -11 6 6 -23 67 -32 67 -4 0 -4 -7 0 -15 7 -19 6 -19 -91 10 -80 25
-83 27 -83 55 0 17 2 30 4 30 3 0 41 -13 86 -30 114 -42 138 -40 104 9 -12 17
-19 20 -25 10 -6 -10 -28 -6 -101 19 -95 33 -108 36 -108 27z m88 -136 c14 0
13 -2 -3 -9 -19 -7 -18 -9 8 -19 16 -6 32 -11 36 -11 18 0 91 -61 91 -76 0
-25 -73 -12 -115 21 -50 37 -88 116 -49 101 9 -3 23 -6 32 -7z"/>
<path d="M9465 8300 c-3 -5 16 -33 42 -61 32 -35 42 -50 28 -46 -11 3 -33 9
-48 13 l-28 6 18 -37 c10 -20 19 -32 21 -26 6 17 35 13 124 -18 45 -17 84 -28
86 -27 10 11 -17 34 -63 55 -52 22 -151 98 -141 108 2 3 40 -9 83 -25 110 -43
123 -46 123 -29 0 18 -39 67 -40 50 0 -19 -19 -16 -95 17 -74 31 -100 36 -110
20z"/>
<path d="M9474 8115 c-24 -62 134 -193 206 -170 49 15 31 69 -43 129 -45 36
-119 44 -125 13 -4 -21 24 -57 46 -57 9 0 6 7 -9 19 -22 18 -22 20 -6 26 40
16 159 -57 141 -86 -8 -14 -68 -11 -107 6 -44 18 -77 59 -77 96 0 32 -17 48
-26 24z"/>
<path d="M9354 7930 c-56 -22 -63 -67 -39 -229 16 -105 13 -131 -14 -132 -12
0 -12 -2 4 -9 62 -27 72 -2 50 130 -28 178 -18 220 57 220 48 0 67 -23 43 -50
-10 -11 -29 -20 -42 -20 -36 0 -27 -12 43 -55 49 -30 64 -45 62 -60 -2 -15
-11 -20 -35 -20 -37 0 -44 -10 -14 -20 11 -3 36 1 57 10 20 8 39 13 42 10 6
-6 12 -1 -76 -65 -101 -72 -124 -125 -84 -192 51 -88 222 -92 283 -6 41 57 18
161 -50 222 l-21 19 45 42 c41 37 45 46 45 87 0 109 -133 166 -197 85 -19 -25
-20 -25 -32 -5 -12 19 -69 49 -93 47 -7 0 -23 -4 -34 -9z m281 -24 c71 -30 73
-84 5 -151 -59 -58 -69 -54 -88 33 -17 76 -15 99 10 116 27 19 30 20 73 2z
m-116 -134 c1 -8 -11 -4 -31 10 -18 13 -35 24 -37 25 -2 1 7 11 20 22 l24 19
12 -31 c6 -18 12 -38 12 -45z m139 -156 c37 -56 41 -97 12 -144 -29 -48 -75
-72 -138 -72 -48 0 -58 4 -88 34 -40 40 -42 60 -11 104 26 39 155 133 177 129
8 -1 30 -24 48 -51z"/>
<path d="M9355 6890 c3 -5 13 -10 21 -10 8 0 12 5 9 10 -3 6 -13 10 -21 10 -8
0 -12 -4 -9 -10z"/>
<path d="M9436 6830 c4 -25 3 -40 -4 -40 -6 0 -39 13 -74 30 -83 39 -89 39
-75 -5 8 -28 13 -32 24 -23 11 8 25 6 62 -12 43 -20 50 -27 55 -60 8 -53 73
-132 130 -160 84 -40 100 -6 36 78 -38 50 -39 52 -13 39 16 -8 38 -18 50 -21
21 -7 21 -5 13 25 -11 39 -30 61 -30 36 0 -9 -2 -17 -5 -17 -5 0 -147 69 -153
75 -2 1 0 14 4 29 l6 26 85 -45 c97 -52 118 -56 107 -22 -3 12 -10 29 -15 37
-7 13 -8 12 -9 -2 0 -10 -3 -18 -6 -18 -4 0 -44 20 -90 45 -45 25 -87 45 -93
45 -7 0 -9 -14 -5 -40z m44 -105 c22 -13 23 -14 5 -15 -14 0 -6 -8 25 -26 76
-43 116 -104 69 -104 -51 0 -139 91 -139 143 0 20 7 21 40 2z"/>
<path d="M9393 6584 c-7 -18 7 -47 44 -93 25 -30 25 -33 6 -23 -12 7 -34 17
-48 22 -26 10 -26 9 -20 -22 9 -40 14 -46 24 -29 6 10 29 2 99 -33 51 -25 94
-46 97 -46 16 0 -16 33 -71 73 -59 43 -112 103 -101 113 3 3 40 -15 83 -40 43
-25 84 -46 91 -46 16 0 17 24 1 53 -10 19 -12 19 -17 5 -5 -15 -16 -11 -77 26
-91 55 -103 59 -111 40z"/>
<path d="M9363 6375 c12 -71 72 -139 145 -163 40 -14 72 -1 72 27 0 28 -58
108 -94 131 -40 24 -82 26 -90 4 -8 -20 9 -51 37 -65 21 -12 21 -11 5 8 -45
50 6 55 69 7 83 -63 56 -112 -35 -65 -60 31 -87 66 -86 112 1 28 -3 39 -14 39
-11 0 -13 -8 -9 -35z"/>
<path d="M9180 6220 c-11 -11 -22 -30 -25 -42 -4 -18 -10 -138 -14 -260 -1
-11 -9 -18 -21 -18 -30 0 -24 -14 12 -28 43 -16 47 -7 49 103 1 144 12 205 38
226 30 24 53 24 82 0 32 -26 16 -56 -30 -56 -17 0 -31 -2 -31 -5 0 -3 28 -30
62 -61 55 -50 61 -58 49 -73 -16 -19 -42 -21 -59 -4 -9 9 -12 8 -12 -5 0 -13
9 -17 43 -17 24 0 48 5 54 11 8 8 13 8 18 -1 9 -14 15 -9 -78 -55 -91 -44
-127 -81 -127 -132 0 -106 132 -174 243 -125 91 40 106 135 37 238 l-28 42 37
20 c51 29 71 53 77 94 16 99 -115 180 -182 113 l-25 -25 -11 26 c-24 52 -119
73 -158 34z m310 -45 c54 -28 65 -76 26 -122 -30 -35 -93 -70 -106 -57 -5 5
-12 43 -16 85 -5 63 -4 78 11 92 20 21 47 22 85 2z m-136 -83 l6 -43 -34 27
-35 28 27 17 c15 9 27 16 28 15 1 0 4 -20 8 -44z m112 -198 c79 -134 -69 -268
-207 -187 -54 32 -63 87 -21 133 27 30 181 112 194 104 4 -3 20 -25 34 -50z"/>
<path d="M8680 5244 c-14 -35 -12 -44 4 -38 10 4 23 -10 40 -44 25 -49 25 -52
10 -89 -32 -75 -4 -214 49 -247 28 -17 38 10 35 90 l-3 71 29 -51 29 -51 13
35 c17 46 17 55 0 41 -17 -14 -23 -6 -66 78 -32 64 -32 64 -12 84 20 19 20 19
67 -72 26 -50 51 -91 55 -91 4 0 13 14 19 31 9 26 8 30 -4 25 -11 -4 -27 19
-60 84 -24 48 -49 91 -54 94 -5 4 -15 -10 -21 -29 -6 -19 -17 -35 -25 -35 -7
0 -29 32 -49 70 -21 39 -39 70 -42 70 -2 0 -9 -12 -14 -26z m96 -181 c17 -23
17 -34 0 -27 -10 4 -8 -6 7 -37 23 -46 29 -130 11 -136 -16 -5 -51 53 -59 98
-6 34 9 119 22 119 3 0 12 -8 19 -17z"/>
<path d="M8780 5245 c0 -8 5 -15 10 -15 6 0 10 7 10 15 0 8 -4 15 -10 15 -5 0
-10 -7 -10 -15z"/>
<path d="M8616 4974 c-3 -9 -6 -39 -6 -67 l0 -52 -20 33 c-11 17 -23 32 -28
32 -12 0 -31 -59 -21 -66 5 -3 9 1 9 8 0 24 27 -15 71 -102 33 -64 44 -80 47
-62 2 12 -5 46 -16 75 -23 63 -37 170 -22 165 6 -2 26 -38 44 -81 19 -43 40
-85 47 -94 12 -14 15 -12 26 13 18 42 17 60 -2 44 -13 -10 -17 -7 -30 24 -47
111 -65 146 -78 146 -8 0 -18 -7 -21 -16z"/>
<path d="M8482 4833 c-22 -56 -23 -93 -7 -149 15 -52 52 -104 74 -104 26 0 41
33 41 91 0 68 -19 122 -48 138 -37 20 -67 -31 -42 -69 8 -12 10 -9 10 13 0 40
20 30 48 -23 26 -51 29 -98 7 -106 -20 -8 -42 11 -66 57 -24 49 -24 95 1 137
24 39 24 42 6 42 -7 0 -18 -12 -24 -27z"/>
<path d="M8224 4810 c-22 -9 -81 -75 -152 -172 -41 -56 -66 -71 -75 -45 -2 6
-7 10 -10 7 -11 -10 34 -69 49 -63 8 3 45 46 83 97 116 154 145 172 197 121
28 -28 28 -52 2 -69 -13 -8 -24 -5 -48 12 -16 12 -30 20 -30 18 0 -3 7 -31 15
-63 8 -31 15 -70 15 -85 0 -23 -4 -28 -26 -28 -17 0 -28 6 -31 20 -7 25 -26
27 -21 3 2 -10 21 -27 43 -38 51 -26 49 -24 43 -30 -2 -3 -45 1 -94 8 -127 19
-173 2 -194 -72 -21 -75 32 -165 115 -197 107 -40 194 32 195 162 l0 52 44 -5
c97 -11 146 27 146 113 0 45 -5 59 -29 86 -24 27 -36 33 -70 32 l-41 -1 0 38
c0 67 -71 122 -126 99z m104 -169 c-2 -3 -10 -18 -17 -33 -16 -32 -31 -37 -31
-10 0 9 -3 26 -6 38 -5 18 -2 20 26 16 17 -2 29 -7 28 -11z m123 -20 c39 -39
40 -91 3 -120 -38 -30 -149 -31 -157 -1 -3 11 -1 23 4 26 5 3 18 22 28 42 24
47 57 82 77 82 9 0 29 -13 45 -29z m-251 -156 c47 -8 87 -15 89 -15 2 0 1 -25
-1 -55 -8 -95 -75 -154 -161 -140 -60 10 -127 80 -127 133 0 40 12 63 45 80
27 15 55 15 155 -3z"/>
<path d="M6050 15213 c-86 -59 -134 -239 -112 -422 12 -101 30 -148 82 -212
36 -45 76 -57 122 -35 40 20 71 63 99 141 19 50 22 82 23 195 0 114 -4 144
-22 194 -49 133 -123 187 -192 139z"/>
<path d="M2680 13415 c0 -9 5 -15 11 -13 6 2 11 8 11 13 0 5 -5 11 -11 13 -6
2 -11 -4 -11 -13z"/>
<path d="M2750 13405 c0 -4 7 -20 16 -37 23 -45 5 -49 -84 -22 -43 13 -78 24
-79 24 -2 0 5 -16 14 -35 13 -27 19 -32 30 -23 10 8 25 7 59 -2 39 -11 48 -19
69 -60 40 -79 125 -140 195 -140 53 0 30 58 -44 111 -46 34 -45 34 18 13 26
-9 49 -14 52 -11 6 6 -23 67 -32 67 -4 0 -4 -7 0 -15 7 -20 0 -19 -93 10 -77
25 -81 27 -81 55 0 17 2 30 4 30 3 0 41 -13 86 -30 74 -27 120 -37 120 -25 0
2 -5 16 -12 30 -12 27 -24 32 -30 14 -3 -8 -37 -1 -101 20 -104 33 -107 34
-107 26z m83 -135 c7 0 6 -4 -3 -10 -12 -7 -11 -10 5 -15 67 -22 135 -68 135
-92 0 -24 -73 -11 -115 22 -50 37 -88 116 -49 101 9 -3 21 -6 27 -6z"/>
<path d="M2760 13111 c0 -10 19 -38 43 -61 45 -45 46 -44 -31 -24 l-23 6 18
-37 c10 -20 19 -32 21 -26 6 17 32 13 125 -18 48 -17 87 -27 87 -23 0 15 -18
28 -72 54 -55 26 -143 96 -134 105 3 3 35 -7 73 -23 127 -51 155 -49 116 5
-14 20 -17 22 -22 8 -5 -13 -17 -11 -86 18 -93 40 -115 43 -115 16z"/>
<path d="M2764 12935 c-16 -41 49 -120 129 -155 56 -25 92 -21 102 11 9 27
-16 62 -75 107 -34 26 -51 32 -79 30 -25 -2 -37 -8 -39 -21 -4 -21 24 -57 46
-57 9 0 6 7 -9 19 -21 17 -22 20 -7 26 39 15 138 -39 138 -76 0 -43 -128 -9
-164 43 -9 12 -16 35 -16 50 0 31 -17 47 -26 23z"/>
<path d="M2644 12750 c-56 -22 -63 -67 -39 -229 16 -105 13 -131 -14 -132 -12
0 -12 -2 4 -9 62 -27 70 -6 50 129 -27 180 -17 221 54 221 50 0 71 -22 46 -50
-9 -10 -31 -20 -48 -22 -29 -3 -27 -5 42 -48 55 -34 71 -50 69 -65 -2 -15 -11
-20 -35 -20 -37 0 -43 -10 -13 -20 11 -3 36 1 55 11 20 9 39 14 42 10 3 -3 4
-8 2 -9 -2 -2 -39 -29 -82 -61 -98 -72 -115 -110 -81 -182 43 -91 223 -101
283 -15 42 60 33 121 -29 199 l-39 50 39 31 c84 68 62 184 -41 211 -45 12 -78
2 -106 -33 -19 -25 -20 -25 -32 -5 -12 19 -69 49 -93 47 -7 0 -23 -4 -34 -9z
m281 -24 c71 -30 74 -88 8 -151 -26 -25 -50 -45 -54 -45 -13 0 -26 26 -37 78
-17 76 -15 99 10 116 27 19 30 20 73 2z m-119 -133 c-4 -4 -24 5 -55 26 -12 8
-11 13 10 29 l24 20 13 -35 c6 -20 10 -38 8 -40z m142 -157 c37 -56 41 -97 12
-144 -28 -46 -76 -72 -133 -72 -92 0 -146 59 -114 125 18 37 161 146 187 142
8 -1 30 -24 48 -51z"/>
<path d="M2680 11855 c0 -9 5 -15 11 -13 6 2 11 8 11 13 0 5 -5 11 -11 13 -6
2 -11 -4 -11 -13z"/>
<path d="M2750 11845 c0 -4 7 -20 16 -37 23 -45 5 -49 -83 -21 -42 13 -77 22
-80 20 -6 -6 31 -67 40 -67 5 0 5 5 2 10 -8 13 19 13 67 -2 32 -9 44 -20 63
-58 40 -79 125 -140 195 -140 55 0 33 56 -43 111 -46 33 -45 34 13 14 23 -8
47 -15 52 -15 12 0 0 41 -18 60 -12 12 -14 12 -14 -4 0 -12 -5 -16 -17 -12
-10 3 -48 15 -85 26 -63 19 -67 22 -66 50 1 17 2 30 4 30 1 0 39 -13 84 -30
74 -27 120 -37 120 -25 0 2 -5 16 -12 30 -12 27 -24 32 -30 13 -3 -8 -33 -2
-100 20 -102 34 -108 35 -108 27z m88 -136 c14 0 13 -2 -2 -8 -16 -6 -12 -10
25 -25 56 -23 109 -63 109 -83 0 -24 -73 -11 -115 22 -50 37 -88 116 -49 101
9 -3 23 -6 32 -7z"/>
<path d="M2757 11563 c-9 -9 17 -47 56 -85 l32 -30 -27 6 c-14 3 -33 9 -42 12
-20 7 -20 -12 -2 -45 11 -19 14 -20 19 -8 5 14 19 11 106 -18 56 -18 101 -31
101 -27 0 15 -18 28 -72 54 -56 27 -143 96 -134 106 3 2 38 -9 78 -26 127 -51
151 -50 111 7 -14 20 -18 22 -22 9 -5 -14 -17 -11 -86 18 -81 34 -106 40 -118
27z"/>
<path d="M2764 11375 c-24 -62 128 -188 203 -169 54 14 34 70 -47 132 -34 26
-51 32 -79 30 -25 -2 -37 -8 -39 -21 -4 -21 24 -57 46 -57 9 0 6 7 -9 19 -21
17 -22 20 -7 26 39 15 138 -39 138 -76 0 -15 -7 -19 -34 -19 -75 0 -146 54
-146 111 0 32 -17 48 -26 24z"/>
<path d="M2644 11190 c-56 -22 -63 -67 -39 -229 16 -105 13 -131 -14 -132 -12
0 -12 -2 4 -9 62 -27 70 -6 50 129 -27 180 -17 221 54 221 51 0 71 -22 46 -50
-10 -11 -29 -20 -42 -20 -36 0 -27 -12 43 -55 49 -30 64 -45 62 -60 -2 -15
-11 -20 -35 -20 -37 0 -43 -10 -13 -20 11 -4 34 1 52 9 74 37 63 11 -18 -44
-37 -25 -77 -58 -90 -73 -47 -55 -20 -146 53 -181 69 -33 185 -12 219 39 43
66 35 126 -26 203 l-39 50 39 31 c84 68 62 184 -41 211 -45 12 -78 2 -106 -33
-19 -25 -20 -25 -32 -5 -12 19 -69 49 -93 47 -7 0 -23 -4 -34 -9z m293 -30
c60 -36 53 -97 -18 -159 -46 -39 -63 -33 -73 27 -19 123 -20 118 5 136 30 21
47 20 86 -4z m-131 -127 c-4 -4 -24 5 -55 26 -12 8 -11 13 10 29 l24 20 13
-35 c6 -20 10 -38 8 -40z m141 -157 c38 -56 42 -96 13 -144 -28 -46 -76 -72
-133 -72 -92 0 -146 59 -114 125 17 36 161 146 186 142 8 -1 29 -24 48 -51z"/>
<path d="M2680 10194 c0 -9 5 -14 12 -12 18 6 21 28 4 28 -9 0 -16 -7 -16 -16z"/>
<path d="M2750 10185 c0 -4 7 -20 16 -37 23 -45 5 -49 -83 -21 -42 13 -77 22
-80 20 -6 -6 31 -67 40 -67 5 0 5 5 2 10 -8 13 19 13 67 -2 32 -9 43 -20 60
-55 36 -76 128 -143 198 -143 55 0 33 56 -43 111 -47 34 -46 34 17 13 26 -9
49 -14 52 -11 6 6 -23 67 -32 67 -4 0 -4 -7 0 -15 7 -20 0 -19 -93 10 -77 25
-81 27 -81 55 0 17 2 30 4 30 3 0 41 -13 86 -30 74 -27 120 -37 120 -25 0 2
-5 16 -12 30 -12 27 -24 32 -30 14 -3 -8 -34 -2 -99 20 -97 32 -109 35 -109
26z m83 -135 c7 0 6 -4 -3 -10 -11 -7 -9 -11 13 -19 16 -6 32 -11 36 -11 18 0
91 -61 91 -76 0 -25 -73 -12 -115 21 -50 37 -88 116 -49 101 9 -3 21 -6 27 -6z"/>
<path d="M2760 9893 c0 -10 19 -37 43 -61 43 -46 44 -45 -23 -26 -13 3 -20 1
-20 -8 1 -18 29 -66 30 -49 0 18 56 9 139 -24 36 -14 66 -23 68 -21 11 11 -15
34 -63 55 -31 13 -77 44 -102 68 -52 50 -50 50 77 3 46 -17 86 -28 89 -26 7 7
-19 66 -28 66 -5 0 -10 -6 -12 -14 -2 -11 -21 -7 -83 20 -91 38 -115 41 -115
17z"/>
<path d="M2764 9715 c-26 -67 148 -201 215 -166 11 7 21 20 21 31 0 24 -50 82
-95 110 -42 26 -98 24 -103 -3 -4 -21 24 -57 46 -57 9 0 6 7 -9 19 -21 17 -22
20 -7 26 39 15 138 -39 138 -76 0 -44 -131 -8 -166 46 -9 14 -16 37 -16 50 0
30 -16 43 -24 20z"/>
<path d="M2644 9530 c-56 -23 -63 -67 -39 -229 16 -105 13 -131 -14 -132 -12
0 -12 -2 4 -9 62 -27 70 -6 50 129 -20 136 -20 184 3 204 23 21 85 22 102 2
18 -21 -12 -53 -53 -57 -29 -3 -27 -5 42 -48 55 -34 71 -50 69 -65 -2 -16 -10
-20 -35 -19 -36 2 -44 -11 -14 -21 11 -3 36 1 56 10 43 17 45 18 45 7 0 -5
-32 -30 -71 -57 -104 -71 -131 -129 -92 -195 38 -65 157 -92 233 -52 45 24 83
94 74 137 -7 37 -45 104 -73 129 l-21 19 45 42 c41 37 45 46 45 87 0 108 -135
167 -196 86 l-18 -24 -25 28 c-28 30 -83 43 -117 28z m281 -24 c69 -29 73 -86
10 -147 -64 -62 -72 -59 -94 34 -16 69 -14 94 11 111 27 19 30 20 73 2z m-116
-134 c1 -11 -25 2 -68 35 -2 1 7 11 20 22 l24 19 12 -31 c6 -18 12 -38 12 -45z
m138 -156 c38 -56 42 -96 13 -144 -29 -48 -75 -72 -138 -72 -48 0 -58 4 -88
34 -38 38 -41 54 -19 96 17 33 162 141 184 137 8 -1 29 -24 48 -51z"/>
<path d="M2680 8635 c0 -9 5 -15 11 -13 6 2 11 8 11 13 0 5 -5 11 -11 13 -6 2
-11 -4 -11 -13z"/>
<path d="M2750 8627 c0 -2 7 -19 16 -37 24 -47 6 -52 -83 -23 -42 13 -78 22
-80 19 -4 -3 17 -42 35 -66 1 -2 7 2 12 9 7 12 16 12 54 1 39 -11 49 -19 75
-65 46 -82 121 -135 191 -135 55 0 33 56 -43 111 -47 34 -46 34 17 13 26 -9
49 -14 52 -11 3 3 -3 20 -12 39 -14 25 -19 29 -22 16 -4 -22 4 -23 -91 7 -77
25 -81 27 -81 55 0 17 1 30 3 30 2 0 40 -13 85 -30 75 -27 122 -37 122 -25 0
2 -5 16 -12 30 -12 27 -24 32 -30 14 -3 -8 -34 -2 -99 20 -92 30 -109 35 -109
28z m83 -137 c8 0 7 -3 -2 -9 -15 -10 -10 -14 41 -30 40 -13 98 -61 98 -81 0
-21 -77 -4 -115 25 -50 37 -88 116 -49 101 9 -3 21 -6 27 -6z"/>
<path d="M2757 8343 c-9 -9 17 -47 56 -85 l32 -30 -27 6 c-14 3 -33 9 -42 12
-10 4 -16 1 -16 -7 1 -18 29 -68 30 -51 0 19 33 15 125 -17 47 -17 85 -27 85
-23 0 16 -18 29 -81 60 -36 18 -81 49 -100 69 -38 40 -42 40 91 -6 46 -17 86
-28 89 -26 2 2 -2 18 -9 35 -13 31 -30 40 -30 16 0 -11 -21 -6 -85 20 -86 35
-106 39 -118 27z"/>
<path d="M2760 8145 c0 -71 144 -181 210 -160 51 16 30 72 -50 133 -34 26 -51
32 -79 30 -25 -2 -37 -8 -39 -21 -4 -21 24 -57 46 -57 9 0 6 7 -9 19 -21 17
-22 20 -7 26 39 15 138 -39 138 -76 0 -15 -7 -19 -35 -19 -76 0 -145 53 -145
111 0 19 -5 29 -15 29 -8 0 -15 -7 -15 -15z"/>
<path d="M2644 7970 c-56 -23 -63 -67 -39 -229 16 -105 13 -131 -14 -132 -12
0 -12 -2 4 -9 62 -27 70 -6 50 129 -27 180 -17 221 54 221 51 0 71 -22 46 -50
-10 -11 -29 -20 -42 -20 -36 0 -27 -12 43 -55 49 -30 64 -45 62 -60 -2 -16
-10 -20 -35 -19 -36 2 -44 -11 -13 -21 11 -3 36 1 55 11 42 20 61 9 25 -15
-138 -92 -166 -126 -156 -190 10 -66 75 -111 158 -111 73 0 117 25 146 82 20
40 22 51 12 86 -6 23 -28 63 -50 90 l-39 50 39 31 c44 35 61 80 49 125 -20 70
-101 110 -164 80 -19 -9 -37 -24 -40 -35 -5 -16 -9 -15 -33 11 -29 32 -83 45
-118 30z m286 -25 c66 -34 67 -89 3 -150 -26 -25 -50 -45 -54 -45 -13 0 -26
26 -37 78 -17 76 -15 99 10 116 28 20 41 20 78 1z m-121 -133 c1 -11 -25 2
-68 35 -2 1 7 11 20 22 l24 19 12 -31 c6 -18 12 -38 12 -45z m139 -156 c37
-56 41 -97 12 -144 -28 -46 -76 -72 -133 -72 -92 0 -146 59 -114 125 18 37
161 146 187 142 8 -1 30 -24 48 -51z"/>
<path d="M2655 6861 c-7 -12 12 -24 25 -16 11 7 4 25 -10 25 -5 0 -11 -4 -15
-9z"/>
<path d="M2950 6856 c0 -19 -9 -19 -100 -5 -38 6 -81 9 -96 7 l-26 -3 22 -27
c33 -43 19 -51 -77 -43 l-85 7 23 -31 c25 -34 39 -40 39 -16 0 25 101 9 120
-19 46 -66 117 -107 197 -114 43 -4 54 -1 59 12 9 23 -18 50 -80 82 l-51 26
58 -7 c65 -7 70 0 31 42 -16 18 -24 22 -20 11 6 -21 -17 -23 -123 -12 -60 7
-61 8 -61 37 0 27 2 29 28 23 49 -10 182 -19 182 -12 0 5 -9 19 -20 33 -15 19
-20 21 -20 9z m-100 -126 l-25 -7 30 -7 c110 -25 142 -42 132 -70 -17 -45
-152 10 -188 77 -9 15 -5 17 33 16 36 -1 39 -2 18 -9z"/>
<path d="M2795 6580 c-8 -13 30 -49 80 -76 l39 -21 -53 5 -54 5 19 -32 c18
-31 34 -41 34 -21 0 13 82 13 150 0 29 -6 55 -8 57 -6 10 10 -30 34 -68 40
-49 8 -141 50 -160 73 -13 15 -11 16 11 10 49 -13 189 -31 196 -25 7 8 -25 58
-37 58 -5 0 -9 -7 -9 -16 0 -10 -6 -14 -17 -10 -31 9 -136 26 -159 26 -13 0
-26 -4 -29 -10z"/>
<path d="M2835 6400 c-4 -6 0 -22 9 -35 55 -83 216 -131 247 -73 11 21 3 36
-36 70 -57 49 -167 63 -173 21 -3 -23 31 -54 58 -52 10 0 7 4 -7 11 -13 6 -23
18 -23 26 0 21 94 10 128 -15 44 -33 35 -48 -33 -51 -74 -3 -124 24 -139 76
-9 33 -20 40 -31 22z"/>
<path d="M2975 6243 c-29 -7 -46 -24 -61 -58 -7 -16 -13 -24 -14 -18 0 17 -53
43 -85 43 -30 0 -65 -16 -82 -39 -21 -28 -14 -83 27 -200 22 -63 40 -119 40
-123 0 -5 -10 -13 -22 -18 -19 -7 -16 -9 20 -9 38 -1 42 1 42 22 0 13 -18 74
-40 136 -22 61 -40 125 -40 141 0 38 32 70 69 70 59 0 63 -51 7 -75 -28 -12
-29 -14 -11 -20 74 -25 130 -54 133 -70 5 -23 -17 -37 -45 -30 -13 3 -23 1
-23 -5 0 -21 59 -14 86 11 20 18 44 25 44 13 0 -4 -31 -39 -68 -79 -76 -80
-91 -115 -68 -170 47 -112 252 -98 302 22 25 58 10 100 -58 166 l-61 58 21 22
c70 74 56 167 -29 201 -40 16 -49 17 -84 9z m106 -42 c37 -38 37 -57 -3 -117
-47 -70 -61 -68 -98 10 -36 78 -37 100 -8 120 35 25 76 20 109 -13z m-131
-133 c0 -3 -18 1 -40 9 l-40 16 22 24 22 24 18 -33 c9 -18 17 -36 18 -40z
m157 -113 c22 -19 46 -48 53 -64 51 -123 -140 -248 -235 -153 -45 44 -32 83
61 181 36 39 70 71 73 71 4 0 26 -16 48 -35z"/>
<path d="M3523 5256 c5 -12 -11 -25 -71 -55 -42 -22 -86 -46 -96 -54 -19 -14
-18 -15 17 -26 46 -15 47 -35 5 -57 -18 -9 -51 -28 -73 -42 -35 -23 -37 -26
-20 -33 34 -13 65 -11 59 5 -3 8 11 23 39 39 42 25 45 25 88 10 84 -29 240 11
247 64 4 28 -29 38 -99 30 -27 -3 -49 -4 -49 -2 0 3 19 14 41 26 46 23 43 35
-11 45 -31 7 -34 6 -22 -8 11 -14 3 -22 -64 -58 l-76 -42 -20 20 -21 20 64 32
c120 61 135 78 80 95 -20 6 -23 4 -18 -9z m146 -135 c13 -8 13 -12 1 -26 -24
-29 -68 -45 -123 -45 -29 0 -61 6 -70 13 -16 11 -15 14 15 31 28 17 31 17 19
3 -17 -21 -9 -21 29 -2 23 12 74 28 110 34 3 0 11 -3 19 -8z"/>
<path d="M3280 5094 c0 -9 5 -14 12 -12 18 6 21 28 4 28 -9 0 -16 -7 -16 -16z"/>
<path d="M3725 5061 c4 -14 -12 -25 -85 -58 -49 -23 -90 -46 -90 -52 0 -19 48
-31 95 -24 25 3 45 3 45 0 0 -3 -17 -15 -37 -27 l-37 -22 33 -14 c42 -18 42
-18 39 4 -2 13 19 29 84 62 126 64 118 80 -18 34 -46 -15 -92 -24 -117 -22
l-42 3 98 48 c53 26 97 52 97 57 0 6 -1 10 -3 10 -1 0 -17 4 -35 9 -29 9 -32
8 -27 -8z"/>
<path d="M3839 4909 c-56 -8 -85 -23 -99 -50 -21 -38 29 -65 70 -39 12 8 9 10
-13 10 -40 0 -30 20 23 48 94 48 149 6 64 -48 -59 -37 -118 -40 -158 -9 -28
22 -42 20 -33 -5 6 -16 66 -36 108 -36 38 0 113 28 138 51 15 14 21 30 19 47
-2 22 -9 28 -38 32 -19 3 -56 3 -81 -1z"/>
<path d="M3945 4806 c-16 -7 -38 -22 -48 -34 -19 -20 -26 -70 -13 -91 5 -7 -4
-11 -28 -11 -47 0 -79 -16 -99 -50 -39 -65 -14 -104 127 -199 89 -61 103 -76
86 -96 -18 -22 6 -20 35 3 32 26 22 39 -95 122 -112 79 -143 113 -134 144 10
33 46 67 69 64 26 -4 32 -44 9 -69 -9 -10 -15 -21 -13 -24 3 -2 40 5 83 16 64
16 81 18 88 7 13 -21 5 -41 -22 -55 -24 -12 -24 -13 -3 -13 26 0 53 35 53 67
0 13 6 23 13 23 11 0 11 -18 0 -101 -13 -94 -13 -103 5 -137 13 -27 30 -41 58
-51 60 -21 110 -8 160 43 118 117 49 266 -122 266 l-44 0 0 60 c0 51 -4 64
-27 90 -33 37 -91 48 -138 26z m105 -26 c16 -16 20 -33 20 -90 0 -84 -3 -85
-89 -35 -87 51 -94 71 -48 123 27 29 89 30 117 2z m-101 -149 c38 -20 40 -17
-29 -37 -17 -4 -20 -1 -20 25 0 36 3 37 49 12z m296 -40 c40 -23 55 -55 55
-118 0 -48 -3 -56 -43 -98 -39 -41 -48 -45 -90 -45 -57 0 -87 32 -87 91 0 80
22 188 39 192 28 7 95 -5 126 -22z"/>
<path d="M5288 13452 c-24 -40 -5 -108 27 -96 22 9 28 59 10 93 -8 17 -17 31
-18 31 -2 0 -10 -13 -19 -28z"/>
<path d="M5359 13439 c-10 -27 -10 -36 2 -57 17 -31 31 -32 44 -3 12 26 25 27
25 2 0 -10 7 -25 16 -32 35 -29 60 54 29 95 -14 19 -15 19 -36 0 -21 -19 -22
-19 -36 4 -20 29 -28 28 -44 -9z"/>
<path d="M5592 13445 c-15 -32 -15 -60 -2 -86 20 -37 49 -18 51 34 0 16 4 12
16 -15 18 -45 39 -49 54 -10 l11 27 14 -27 c17 -33 29 -35 46 -8 7 11 16 20
20 20 4 0 10 -9 13 -20 6 -20 29 -27 39 -12 15 24 14 67 -1 84 -15 17 -17 17
-35 2 -17 -16 -19 -16 -39 2 -19 17 -21 18 -30 1 -13 -23 -35 -22 -52 3 -13
18 -16 19 -27 5 -17 -21 -37 -19 -45 5 -9 27 -19 25 -33 -5z"/>
<path d="M5517 13436 c-20 -31 -5 -99 20 -94 23 4 36 57 22 91 -14 33 -22 34
-42 3z"/>
<path d="M5890 13431 c-13 -24 -13 -61 0 -81 7 -12 13 -12 27 -4 23 14 28 50
12 80 -15 29 -25 30 -39 5z"/>
<path d="M6476 13434 c-11 -30 -6 -82 10 -95 34 -28 60 54 30 94 -16 21 -32
22 -40 1z"/>
<path d="M4995 13320 c-3 -5 -1 -10 4 -10 6 0 11 5 11 10 0 6 -2 10 -4 10 -3
0 -8 -4 -11 -10z"/>
<path d="M5046 13263 c-6 -14 -5 -15 5 -6 7 7 10 15 7 18 -3 3 -9 -2 -12 -12z"/>
<path d="M5066 13217 c-23 -61 -19 -72 5 -13 11 27 18 50 16 53 -2 2 -12 -16
-21 -40z"/>
<path d="M5022 13219 c-19 -30 -8 -34 12 -4 9 14 13 25 9 25 -5 0 -14 -9 -21
-21z"/>
<path d="M5101 13194 c0 -11 3 -14 6 -6 3 7 2 16 -1 19 -3 4 -6 -2 -5 -13z"/>
<path d="M5201 13164 c-6 -21 -9 -40 -6 -42 2 -2 8 13 14 34 6 21 9 40 6 42
-2 2 -8 -13 -14 -34z"/>
<path d="M5236 13154 c-4 -14 -5 -28 -3 -31 3 -2 8 8 11 23 4 14 5 28 3 31 -3
2 -8 -8 -11 -23z"/>
<path d="M5362 13160 c0 -14 2 -19 5 -12 2 6 2 18 0 25 -3 6 -5 1 -5 -13z"/>
<path d="M5083 13155 c-3 -9 -3 -18 -1 -21 3 -3 8 4 11 16 6 23 -1 27 -10 5z"/>
<path d="M5155 13159 c-4 -6 -5 -12 -2 -15 2 -3 7 2 10 11 7 17 1 20 -8 4z"/>
<path d="M5314 13155 c-3 -8 -4 -20 -2 -27 3 -7 7 -1 10 15 6 29 1 36 -8 12z"/>
<path d="M5397 13163 c-10 -19 -18 -67 -9 -58 10 11 25 65 18 65 -3 0 -7 -3
-9 -7z"/>
<path d="M5511 13154 c0 -11 3 -14 6 -6 3 7 2 16 -1 19 -3 4 -6 -2 -5 -13z"/>
<path d="M5555 13159 c-4 -6 -5 -12 -2 -15 2 -3 7 2 10 11 7 17 1 20 -8 4z"/>
<path d="M5740 13144 c-13 -32 -13 -51 -1 -38 10 11 24 64 16 64 -3 0 -10 -12
-15 -26z"/>
<path d="M5772 13123 c-7 -22 -12 -49 -11 -59 0 -11 7 4 15 31 16 60 13 85 -4
28z"/>
<path d="M5851 13144 c0 -11 3 -14 6 -6 3 7 2 16 -1 19 -3 4 -6 -2 -5 -13z"/>
<path d="M5030 13120 c0 -11 2 -20 4 -20 2 0 6 9 9 20 3 11 1 20 -4 20 -5 0
-9 -9 -9 -20z"/>
<path d="M5346 13115 c-3 -8 -1 -15 4 -15 6 0 10 7 10 15 0 8 -2 15 -4 15 -2
0 -6 -7 -10 -15z"/>
<path d="M5921 13114 c0 -11 3 -14 6 -6 3 7 2 16 -1 19 -3 4 -6 -2 -5 -13z"/>
<path d="M5262 13100 c0 -14 2 -19 5 -12 2 6 2 18 0 25 -3 6 -5 1 -5 -13z"/>
<path d="M5692 13100 c0 -14 2 -19 5 -12 2 6 2 18 0 25 -3 6 -5 1 -5 -13z"/>
<path d="M5501 13094 c0 -11 3 -14 6 -6 3 7 2 16 -1 19 -3 4 -6 -2 -5 -13z"/>
<path d="M5881 13094 c0 -11 3 -14 6 -6 3 7 2 16 -1 19 -3 4 -6 -2 -5 -13z"/>
<path d="M5060 13086 c0 -8 -3 -23 -6 -33 -3 -10 2 -7 10 7 18 30 20 40 6 40
-5 0 -10 -6 -10 -14z"/>
<path d="M5572 13070 c0 -14 2 -19 5 -12 2 6 2 18 0 25 -3 6 -5 1 -5 -13z"/>
<path d="M5411 13064 c0 -11 3 -14 6 -6 3 7 2 16 -1 19 -3 4 -6 -2 -5 -13z"/>
<path d="M5911 13054 c0 -11 3 -14 6 -6 3 7 2 16 -1 19 -3 4 -6 -2 -5 -13z"/>
<path d="M5941 13054 c0 -11 3 -14 6 -6 3 7 2 16 -1 19 -3 4 -6 -2 -5 -13z"/>
<path d="M5131 13044 c0 -11 3 -14 6 -6 3 7 2 16 -1 19 -3 4 -6 -2 -5 -13z"/>
<path d="M5171 13044 c0 -11 3 -14 6 -6 3 7 2 16 -1 19 -3 4 -6 -2 -5 -13z"/>
<path d="M5641 13044 c0 -11 3 -14 6 -6 3 7 2 16 -1 19 -3 4 -6 -2 -5 -13z"/>
<path d="M5521 13034 c0 -11 3 -14 6 -6 3 7 2 16 -1 19 -3 4 -6 -2 -5 -13z"/>
<path d="M5601 13034 c0 -11 3 -14 6 -6 3 7 2 16 -1 19 -3 4 -6 -2 -5 -13z"/>
<path d="M5792 13030 c0 -14 2 -19 5 -12 2 6 2 18 0 25 -3 6 -5 1 -5 -13z"/>
<path d="M5241 13024 c0 -11 3 -14 6 -6 3 7 2 16 -1 19 -3 4 -6 -2 -5 -13z"/>
<path d="M5482 13020 c0 -14 2 -19 5 -12 2 6 2 18 0 25 -3 6 -5 1 -5 -13z"/>
<path d="M5752 13020 c0 -14 2 -19 5 -12 2 6 2 18 0 25 -3 6 -5 1 -5 -13z"/>
<path d="M5201 13014 c0 -11 3 -14 6 -6 3 7 2 16 -1 19 -3 4 -6 -2 -5 -13z"/>
<path d="M5706 13004 c-4 -14 -5 -28 -3 -31 3 -2 8 8 11 23 4 14 5 28 3 31 -3
2 -8 -8 -11 -23z"/>
<path d="M5861 13014 c0 -11 3 -14 6 -6 3 7 2 16 -1 19 -3 4 -6 -2 -5 -13z"/>
<path d="M5271 12984 c0 -11 3 -14 6 -6 3 7 2 16 -1 19 -3 4 -6 -2 -5 -13z"/>
<path d="M5661 12984 c0 -11 3 -14 6 -6 3 7 2 16 -1 19 -3 4 -6 -2 -5 -13z"/>
<path d="M5851 12974 c0 -11 3 -14 6 -6 3 7 2 16 -1 19 -3 4 -6 -2 -5 -13z"/>
<path d="M5811 12964 c0 -11 3 -14 6 -6 3 7 2 16 -1 19 -3 4 -6 -2 -5 -13z"/>
<path d="M7160 13170 c0 -8 5 -22 10 -30 9 -13 10 -13 10 0 0 8 -5 22 -10 30
-9 13 -10 13 -10 0z"/>
<path d="M6861 13144 c0 -11 3 -14 6 -6 3 7 2 16 -1 19 -3 4 -6 -2 -5 -13z"/>
<path d="M6982 13130 c0 -8 6 -31 13 -50 7 -19 13 -28 13 -20 0 8 -6 31 -13
50 -7 19 -13 28 -13 20z"/>
<path d="M7061 13128 c0 -7 4 -22 9 -33 8 -18 9 -17 9 7 1 15 -3 30 -9 33 -5
3 -10 0 -9 -7z"/>
<path d="M6792 13100 c0 -14 2 -19 5 -12 2 6 2 18 0 25 -3 6 -5 1 -5 -13z"/>
<path d="M6912 13100 c0 -8 4 -26 8 -40 6 -20 8 -21 8 -5 0 11 -3 29 -8 40 -5
12 -8 14 -8 5z"/>
<path d="M6951 13084 c0 -11 3 -14 6 -6 3 7 2 16 -1 19 -3 4 -6 -2 -5 -13z"/>
<path d="M7111 13084 c0 -11 3 -14 6 -6 3 7 2 16 -1 19 -3 4 -6 -2 -5 -13z"/>
<path d="M6870 13085 c0 -5 5 -17 10 -25 5 -8 10 -10 10 -5 0 6 -5 17 -10 25
-5 8 -10 11 -10 5z"/>
<path d="M6840 13055 c0 -5 5 -17 10 -25 5 -8 10 -10 10 -5 0 6 -5 17 -10 25
-5 8 -10 11 -10 5z"/>
<path d="M7202 13040 c0 -14 2 -19 5 -12 2 6 2 18 0 25 -3 6 -5 1 -5 -13z"/>
<path d="M6770 13021 c0 -11 4 -22 9 -25 4 -3 6 6 3 19 -5 30 -12 33 -12 6z"/>
<path d="M6810 13021 c0 -11 4 -22 9 -25 4 -3 6 6 3 19 -5 30 -12 33 -12 6z"/>
<path d="M6890 13024 c0 -10 5 -26 10 -34 8 -11 9 -7 4 15 -8 37 -14 45 -14
19z"/>
<path d="M7120 13035 c0 -5 5 -17 10 -25 5 -8 10 -10 10 -5 0 6 -5 17 -10 25
-5 8 -10 11 -10 5z"/>
<path d="M6690 13018 c0 -9 5 -20 10 -23 13 -8 13 5 0 25 -8 13 -10 13 -10 -2z"/>
<path d="M7051 13014 c0 -11 3 -14 6 -6 3 7 2 16 -1 19 -3 4 -6 -2 -5 -13z"/>
<path d="M6742 12980 c0 -14 2 -19 5 -12 2 6 2 18 0 25 -3 6 -5 1 -5 -13z"/>
<path d="M6671 12964 c0 -11 3 -14 6 -6 3 7 2 16 -1 19 -3 4 -6 -2 -5 -13z"/>
<path d="M5357 12831 c-4 -18 -7 -45 -6 -60 1 -17 4 -11 10 19 5 25 8 52 6 60
-2 8 -6 0 -10 -19z"/>
<path d="M5299 12788 c-3 -22 -1 -34 4 -29 5 5 7 21 5 37 -3 27 -4 26 -9 -8z"/>
<path d="M5241 12774 c0 -11 3 -14 6 -6 3 7 2 16 -1 19 -3 4 -6 -2 -5 -13z"/>
<path d="M5337 12734 c-4 -4 -7 -19 -6 -33 l0 -26 10 24 c10 26 8 47 -4 35z"/>
<path d="M5274 12676 c-3 -21 -4 -39 -1 -42 2 -3 8 11 11 32 4 20 5 38 2 41
-2 3 -8 -11 -12 -31z"/>
<path d="M5317 12636 c-4 -15 -6 -31 -2 -34 10 -10 16 6 13 35 l-3 28 -8 -29z"/>
<path d="M6932 12870 c0 -14 2 -19 5 -12 2 6 2 18 0 25 -3 6 -5 1 -5 -13z"/>
<path d="M6986 12853 c4 -21 13 -54 21 -73 7 -19 11 -24 8 -10 -3 14 -8 44
-12 68 -3 23 -10 45 -15 48 -6 4 -6 -10 -2 -33z"/>
<path d="M6881 12875 c0 -5 7 -39 14 -75 l15 -65 -5 59 c-3 32 -10 66 -15 75
-5 9 -9 12 -9 6z"/>
<path d="M6952 12785 c-1 -16 8 -55 18 -85 21 -59 20 -41 -3 55 -10 41 -15 50
-15 30z"/>
<path d="M7021 12720 c1 -27 27 -104 28 -80 0 8 -6 35 -13 60 -10 31 -15 37
-15 20z"/>
<path d="M6926 12666 c2 -33 7 -62 9 -65 12 -12 12 9 -1 64 l-14 60 6 -59z"/>
<path d="M5464 12865 c-3 -8 -4 -20 -2 -27 3 -7 7 -1 10 15 6 29 1 36 -8 12z"/>
<path d="M5567 12866 c-4 -10 -7 -30 -6 -44 1 -25 1 -25 10 6 11 37 7 67 -4
38z"/>
<path d="M5730 12855 c0 -14 2 -25 4 -25 2 0 6 11 8 25 3 14 1 25 -3 25 -5 0
-9 -11 -9 -25z"/>
<path d="M5942 12855 c0 -16 2 -22 5 -12 2 9 2 23 0 30 -3 6 -5 -1 -5 -18z"/>
<path d="M5667 12802 c-19 -74 -22 -101 -9 -86 10 10 36 143 30 149 -2 2 -12
-26 -21 -63z"/>
<path d="M5886 12862 c-3 -5 -7 -40 -10 -78 -5 -63 -4 -65 5 -24 11 51 19 110
14 110 -2 0 -6 -4 -9 -8z"/>
<path d="M5453 12785 c0 -22 2 -30 4 -17 2 12 2 30 0 40 -3 9 -5 -1 -4 -23z"/>
<path d="M5605 12763 c-4 -31 -9 -63 -13 -71 -3 -9 -1 -13 5 -9 6 4 14 28 17
54 4 27 9 56 12 66 3 9 1 17 -4 17 -5 0 -13 -25 -17 -57z"/>
<path d="M5552 12765 c0 -16 2 -22 5 -12 2 9 2 23 0 30 -3 6 -5 -1 -5 -18z"/>
<path d="M5495 12740 c-4 -23 -5 -44 -2 -46 3 -3 8 13 12 36 4 23 5 44 2 46
-3 3 -8 -13 -12 -36z"/>
<path d="M5711 12755 c0 -16 -4 -41 -6 -55 l-6 -25 11 25 c6 13 9 38 7 55 l-4
30 -2 -30z"/>
<path d="M5430 12705 c0 -14 5 -25 10 -25 6 0 10 11 10 25 0 14 -4 25 -10 25
-5 0 -10 -11 -10 -25z"/>
<path d="M5852 12660 c0 -19 2 -27 5 -17 2 9 2 25 0 35 -3 9 -5 1 -5 -18z"/>
<path d="M5691 12634 c0 -11 3 -14 6 -6 3 7 2 16 -1 19 -3 4 -6 -2 -5 -13z"/>
<path d="M6732 12865 c0 -11 4 -33 8 -50 l8 -30 0 30 c0 17 -3 39 -8 50 l-9
20 1 -20z"/>
<path d="M6691 12800 c0 -14 4 -32 9 -40 8 -12 10 -12 9 5 0 11 -4 29 -9 40
-8 18 -9 18 -9 -5z"/>
<path d="M6757 12745 c7 -49 13 -58 13 -19 0 16 -5 36 -10 44 -6 10 -7 2 -3
-25z"/>
<path d="M6712 12705 c0 -16 2 -22 5 -12 2 9 2 23 0 30 -3 6 -5 -1 -5 -18z"/>
<path d="M6656 12712 c-2 -4 -1 -14 5 -22 7 -12 9 -10 9 8 0 23 -5 28 -14 14z"/>
<path d="M6296 12842 c-2 -4 -1 -14 5 -22 7 -12 9 -10 9 8 0 23 -5 28 -14 14z"/>
<path d="M6312 12770 c0 -19 2 -27 5 -17 2 9 2 25 0 35 -3 9 -5 1 -5 -18z"/>
<path d="M7123 12349 c3 -13 11 -46 17 -72 7 -27 14 -46 17 -44 7 8 -19 127
-30 134 -6 4 -8 -3 -4 -18z"/>
<path d="M5528 12425 c-4 -11 -9 -45 -12 -75 l-6 -55 15 50 c15 50 18 124 3
80z"/>
<path d="M5890 12403 c0 -21 3 -24 9 -14 5 8 7 20 4 28 -8 21 -13 15 -13 -14z"/>
<path d="M6731 12391 c-2 -40 20 -155 31 -166 7 -7 8 0 4 20 -4 17 -11 57 -17
90 -11 71 -17 89 -18 56z"/>
<path d="M6092 10540 c0 -14 2 -19 5 -12 2 6 2 18 0 25 -3 6 -5 1 -5 -13z"/>
<path d="M6107 10507 c-4 -10 -7 -28 -6 -40 0 -21 1 -21 10 2 5 14 8 32 7 40
-3 13 -5 13 -11 -2z"/>
<path d="M6082 10475 c0 -16 2 -22 5 -12 2 9 2 23 0 30 -3 6 -5 -1 -5 -18z"/>
<path d="M7230 11100 c0 -5 5 -10 10 -10 6 0 10 5 10 10 0 6 -4 10 -10 10 -5
0 -10 -4 -10 -10z"/>
<path d="M7685 10090 c3 -5 8 -10 11 -10 2 0 4 5 4 10 0 6 -5 10 -11 10 -5 0
-7 -4 -4 -10z"/>
<path d="M7602 9990 c0 -19 2 -27 5 -17 2 9 2 25 0 35 -3 9 -5 1 -5 -18z"/>
<path d="M7635 10010 c-3 -5 -2 -10 4 -10 5 0 13 5 16 10 3 6 2 10 -4 10 -5 0
-13 -4 -16 -10z"/>
<path d="M5878 9953 c7 -3 16 -2 19 1 4 3 -2 6 -13 5 -11 0 -14 -3 -6 -6z"/>
<path d="M7098 9533 c7 -3 16 -2 19 1 4 3 -2 6 -13 5 -11 0 -14 -3 -6 -6z"/>
<path d="M7272 9487 c21 -22 68 -50 73 -45 3 3 -12 17 -33 32 -40 28 -62 35
-40 13z"/>
<path d="M7357 9434 c-4 -4 3 -15 15 -25 28 -25 32 -24 12 6 -18 28 -18 28
-27 19z"/>
<path d="M5323 8133 c9 -2 23 -2 30 0 6 3 -1 5 -18 5 -16 0 -22 -2 -12 -5z"/>
<path d="M5280 7755 c0 -8 7 -15 15 -15 8 0 15 7 15 15 0 8 -7 15 -15 15 -8 0
-15 -7 -15 -15z"/>
<path d="M5128 7693 c7 -3 16 -2 19 1 4 3 -2 6 -13 5 -11 0 -14 -3 -6 -6z"/>
<path d="M5178 7693 c7 -3 16 -2 19 1 4 3 -2 6 -13 5 -11 0 -14 -3 -6 -6z"/>
<path d="M4998 7683 c7 -3 16 -2 19 1 4 3 -2 6 -13 5 -11 0 -14 -3 -6 -6z"/>
<path d="M3931 6814 c-108 -54 -205 -190 -246 -344 -26 -99 -31 -298 -10 -401
33 -167 108 -304 226 -413 80 -74 144 -110 230 -131 200 -47 364 19 574 229
39 39 88 92 109 118 l38 48 -55 87 c-30 49 -92 151 -137 228 -155 263 -302
462 -391 529 -105 81 -237 100 -338 50z"/>
<path d="M5530 6241 c-41 -10 -119 -32 -173 -50 -124 -41 -219 -61 -260 -55
-29 4 -35 0 -72 -53 -62 -88 -61 -85 -24 -140 150 -219 281 -363 375 -409 80
-39 176 -41 248 -4 60 31 146 122 181 193 79 162 66 374 -28 468 -63 64 -132
78 -247 50z"/>
<path d="M3585 3484 c-92 -11 -232 -43 -280 -63 -11 -4 -38 -14 -60 -21 -44
-14 -215 -95 -285 -136 -83 -49 -227 -164 -302 -242 -71 -74 -218 -270 -218
-291 0 -5 -3 -11 -7 -13 -15 -6 -93 -179 -112 -248 -8 -25 -17 -54 -21 -65 -9
-22 -24 -97 -40 -189 -14 -81 -13 -303 1 -364 l12 -49 160 -7 c101 -4 164 -3
171 4 6 6 5 23 -2 48 -6 21 -15 83 -18 139 -14 217 50 457 174 649 55 85 67
99 152 184 186 185 389 290 656 340 111 20 125 20 2670 17 2397 -3 2563 -4
2624 -20 83 -23 159 -46 188 -58 12 -5 33 -13 47 -19 119 -48 264 -147 370
-253 107 -109 166 -190 224 -311 56 -114 70 -158 96 -301 20 -110 20 -328 0
-345 -21 -17 -19 -57 3 -62 9 -2 87 -2 173 0 l155 4 14 103 c20 161 -12 404
-77 580 -28 74 -73 177 -83 185 -3 3 -12 19 -20 35 -45 90 -125 198 -232 310
-239 252 -577 417 -951 465 -126 16 -5054 11 -5182 -6z"/>
<path d="M7042 2537 c-18 -18 -32 -41 -32 -51 0 -18 67 -85 85 -86 13 0 85 72
85 84 0 4 -14 26 -31 47 -38 48 -65 50 -107 6z"/>
<path d="M4796 2484 c-7 -19 10 -97 29 -133 7 -14 25 -38 40 -53 48 -52 81
-62 210 -68 151 -8 197 -26 243 -95 40 -61 44 -112 8 -121 -33 -8 -566 1 -593
11 -17 5 -23 4 -23 -8 0 -14 74 -130 108 -169 14 -17 84 -18 1208 -18 1298 0
1216 -4 1229 53 8 39 10 527 2 527 -11 0 -95 -58 -119 -82 -16 -16 -18 -35
-18 -162 0 -122 -2 -145 -16 -150 -9 -3 -374 -6 -813 -6 l-796 0 -13 76 c-15
98 -40 152 -98 214 -81 87 -183 120 -367 120 -103 0 -154 14 -180 49 -19 27
-34 32 -41 15z"/>
<path d="M7605 2421 c-87 -23 -152 -78 -196 -167 -20 -41 -24 -64 -24 -139 1
-107 26 -177 83 -226 57 -51 89 -59 222 -59 119 0 120 0 120 -23 0 -39 -51
-106 -99 -129 -55 -26 -127 -34 -175 -18 -21 6 -54 30 -75 51 -27 28 -43 38
-55 33 -34 -13 0 -103 65 -177 104 -119 290 -115 398 8 42 48 65 96 87 183
l18 72 202 0 c175 0 203 2 215 17 11 12 15 78 19 287 3 149 4 273 2 276 -5 8
-75 -34 -109 -66 l-33 -31 0 -146 c0 -123 -2 -146 -16 -151 -9 -3 -73 -6 -144
-6 l-129 0 -6 48 c-25 180 -85 291 -187 343 -42 22 -138 32 -183 20z m112
-192 c63 -24 99 -78 109 -165 l7 -57 -119 5 c-133 6 -167 17 -185 59 -14 35
-6 95 16 119 40 44 114 61 172 39z"/>
<path d="M4544 2389 c-34 -38 -77 -52 -174 -59 -146 -11 -223 -58 -274 -170
-15 -35 -21 -72 -24 -171 -6 -165 -11 -159 158 -159 142 0 160 -3 160 -31 0
-34 -30 -66 -83 -90 -73 -32 -232 -39 -313 -13 -108 34 -175 128 -158 222 6
35 44 117 80 173 10 15 14 34 11 43 -25 65 -138 -67 -173 -204 -65 -256 120
-452 415 -438 113 6 189 35 257 100 75 70 98 130 98 243 0 101 -18 149 -60
165 -14 6 -76 10 -139 10 -63 0 -116 4 -120 10 -11 17 24 79 55 98 17 11 59
22 95 25 69 7 127 31 162 69 47 50 92 198 61 198 -8 0 -23 -9 -34 -21z"/>
<path d="M2626 1740 c4 -19 10 -42 15 -50 15 -27 10 22 -6 55 l-15 30 6 -35z"/>
<path d="M8165 1713 c-19 -20 -35 -43 -35 -50 0 -18 71 -83 90 -83 21 0 80 61
80 82 0 20 -67 88 -87 88 -7 0 -29 -17 -48 -37z"/>
<path d="M9731 1706 c-6 -16 -10 -31 -7 -33 7 -8 28 37 23 50 -3 7 -10 -1 -16
-17z"/>
<path d="M2658 1654 c-18 -17 130 -299 164 -312 4 -2 8 -9 8 -16 0 -17 175
-186 235 -226 28 -19 52 -37 53 -42 2 -4 12 -8 22 -8 10 0 20 -3 22 -7 3 -8
141 -78 183 -94 25 -10 78 -25 130 -37 22 -6 63 -15 90 -22 90 -22 5148 -17
5285 5 25 4 49 11 55 16 5 5 18 9 29 9 50 0 202 64 316 133 81 49 203 151 259
216 81 95 171 241 171 278 0 7 4 13 8 13 9 0 32 67 32 91 -1 17 -40 -60 -40
-78 0 -7 -4 -13 -10 -13 -5 0 -17 -17 -27 -37 -9 -21 -19 -40 -23 -43 -3 -3
-22 -30 -42 -60 -37 -56 -108 -133 -188 -205 -60 -55 -202 -144 -240 -151 -17
-4 -33 -11 -36 -15 -3 -5 -11 -9 -17 -9 -7 0 -6 4 3 11 23 16 -25 1 -85 -26
-27 -12 -78 -28 -112 -35 -35 -7 -63 -17 -63 -21 0 -5 -26 -9 -57 -10 -32 -1
-69 -5 -83 -9 -25 -8 -25 -8 5 -10 17 -2 -24 -8 -90 -15 -163 -18 -4944 -23
-5020 -6 -68 15 -166 41 -190 51 -11 5 -38 15 -60 22 -122 40 -291 152 -416
277 -86 87 -209 251 -209 280 0 6 -4 11 -10 11 -5 0 -10 6 -10 13 0 21 -35 88
-42 81z"/>
<path d="M10057 1624 c-4 -4 -7 -16 -7 -26 0 -10 -3 -18 -8 -18 -4 0 -22 -29
-41 -65 -135 -267 -467 -537 -826 -675 -11 -4 -31 -12 -45 -18 -37 -17 -237
-73 -295 -83 -27 -5 -79 -14 -115 -21 -85 -15 -5005 -23 -5035 -9 -11 6 -45
12 -75 15 -90 8 -140 18 -146 27 -3 5 -20 9 -39 9 -19 0 -37 5 -40 10 -3 6
-21 10 -40 10 -19 0 -37 5 -41 11 -4 7 -22 9 -43 6 -20 -3 -30 -3 -23 0 19 7
14 20 -10 26 -25 7 -61 -10 -53 -23 3 -6 32 -17 63 -26 31 -9 62 -20 67 -24
22 -16 132 -49 275 -82 93 -22 -164 -19 3002 -43 551 -4 975 -11 972 -16 -3
-5 -76 -10 -162 -10 -86 -1 -220 -4 -297 -8 l-140 -6 165 -8 c254 -11 1482
-16 1600 -6 259 21 502 98 693 221 32 21 61 38 63 38 3 0 10 4 17 10 7 5 39
31 72 57 33 25 77 62 99 82 44 41 206 227 206 236 0 3 17 32 38 63 35 53 86
152 127 247 9 22 22 50 27 62 11 22 7 49 -5 37z m-6400 -940 c-3 -3 -12 -4
-19 -1 -8 3 -5 6 6 6 11 1 17 -2 13 -5z m4196 -81 c-23 -2 -64 -2 -90 0 -26 2
-7 3 42 3 50 0 71 -1 48 -3z"/>
<path d="M4003 1413 c-18 -20 -33 -42 -33 -49 0 -19 62 -84 80 -84 9 0 29 14
45 30 16 17 34 30 40 30 6 0 24 -13 40 -30 16 -16 36 -30 45 -30 17 0 90 69
90 86 0 14 -73 84 -88 84 -7 0 -28 -16 -48 -36 l-35 -37 -38 37 c-20 20 -43
36 -51 35 -8 0 -30 -16 -47 -36z"/>
<path d="M2610 1197 c0 -7 31 -38 105 -107 50 -46 178 -136 213 -150 17 -7 32
-16 32 -21 0 -11 27 -12 34 0 3 4 -12 17 -34 27 -22 10 -40 22 -40 27 0 4 -5
7 -11 7 -21 0 -183 118 -266 194 -18 17 -33 27 -33 23z"/>
<path d="M3010 895 c0 -8 7 -15 15 -15 8 0 15 -4 15 -9 0 -5 17 -16 38 -25 20
-9 45 -21 54 -28 13 -10 22 -9 43 2 36 19 16 38 -25 23 -17 -6 -30 -7 -30 -2
0 5 5 9 11 9 5 0 7 5 4 10 -3 6 -14 10 -23 10 -9 0 -28 9 -42 20 -30 23 -60
26 -60 5z"/>
</g>
</svg>
